G04 #@! TF.GenerationSoftware,KiCad,Pcbnew,(5.1.7)-1*
G04 #@! TF.CreationDate,2021-01-09T22:43:23+09:00*
G04 #@! TF.ProjectId,barracuda,62617272-6163-4756-9461-2e6b69636164,rev?*
G04 #@! TF.SameCoordinates,Original*
G04 #@! TF.FileFunction,Legend,Top*
G04 #@! TF.FilePolarity,Positive*
%FSLAX46Y46*%
G04 Gerber Fmt 4.6, Leading zero omitted, Abs format (unit mm)*
G04 Created by KiCad (PCBNEW (5.1.7)-1) date 2021-01-09 22:43:23*
%MOMM*%
%LPD*%
G01*
G04 APERTURE LIST*
%ADD10C,0.100000*%
G04 APERTURE END LIST*
D10*
X303550000Y-82400000D02*
X302850000Y-82400000D01*
X303550000Y-83800000D02*
X302850000Y-83800000D01*
X302850000Y-82400000D02*
G75*
G03*
X302850000Y-83800000I0J-700000D01*
G01*
X303550000Y-83800000D02*
G75*
G03*
X303550000Y-82400000I0J700000D01*
G01*
X303550000Y-63350000D02*
X302850000Y-63350000D01*
X303550000Y-64750000D02*
X302850000Y-64750000D01*
X302850000Y-63350000D02*
G75*
G03*
X302850000Y-64750000I0J-700000D01*
G01*
X303550000Y-64750000D02*
G75*
G03*
X303550000Y-63350000I0J700000D01*
G01*
X303550000Y-44300000D02*
X302850000Y-44300000D01*
X303550000Y-45700000D02*
X302850000Y-45700000D01*
X302850000Y-44300000D02*
G75*
G03*
X302850000Y-45700000I0J-700000D01*
G01*
X303550000Y-45700000D02*
G75*
G03*
X303550000Y-44300000I0J700000D01*
G01*
X284500000Y-82400000D02*
X283800000Y-82400000D01*
X284500000Y-83800000D02*
X283800000Y-83800000D01*
X283800000Y-82400000D02*
G75*
G03*
X283800000Y-83800000I0J-700000D01*
G01*
X284500000Y-83800000D02*
G75*
G03*
X284500000Y-82400000I0J700000D01*
G01*
X284500000Y-63350000D02*
X283800000Y-63350000D01*
X284500000Y-64750000D02*
X283800000Y-64750000D01*
X283800000Y-63350000D02*
G75*
G03*
X283800000Y-64750000I0J-700000D01*
G01*
X284500000Y-64750000D02*
G75*
G03*
X284500000Y-63350000I0J700000D01*
G01*
X284500000Y-44300000D02*
X283800000Y-44300000D01*
X284500000Y-45700000D02*
X283800000Y-45700000D01*
X283800000Y-44300000D02*
G75*
G03*
X283800000Y-45700000I0J-700000D01*
G01*
X284500000Y-45700000D02*
G75*
G03*
X284500000Y-44300000I0J700000D01*
G01*
X265450000Y-82400000D02*
X264750000Y-82400000D01*
X265450000Y-83800000D02*
X264750000Y-83800000D01*
X264750000Y-82400000D02*
G75*
G03*
X264750000Y-83800000I0J-700000D01*
G01*
X265450000Y-83800000D02*
G75*
G03*
X265450000Y-82400000I0J700000D01*
G01*
X265450000Y-63350000D02*
X264750000Y-63350000D01*
X265450000Y-64750000D02*
X264750000Y-64750000D01*
X264750000Y-63350000D02*
G75*
G03*
X264750000Y-64750000I0J-700000D01*
G01*
X265450000Y-64750000D02*
G75*
G03*
X265450000Y-63350000I0J700000D01*
G01*
X265450000Y-44300000D02*
X264750000Y-44300000D01*
X265450000Y-45700000D02*
X264750000Y-45700000D01*
X264750000Y-44300000D02*
G75*
G03*
X264750000Y-45700000I0J-700000D01*
G01*
X265450000Y-45700000D02*
G75*
G03*
X265450000Y-44300000I0J700000D01*
G01*
X246400000Y-82400000D02*
X245700000Y-82400000D01*
X246400000Y-83800000D02*
X245700000Y-83800000D01*
X245700000Y-82400000D02*
G75*
G03*
X245700000Y-83800000I0J-700000D01*
G01*
X246400000Y-83800000D02*
G75*
G03*
X246400000Y-82400000I0J700000D01*
G01*
X246400000Y-63350000D02*
X245700000Y-63350000D01*
X246400000Y-64750000D02*
X245700000Y-64750000D01*
X245700000Y-63350000D02*
G75*
G03*
X245700000Y-64750000I0J-700000D01*
G01*
X246400000Y-64750000D02*
G75*
G03*
X246400000Y-63350000I0J700000D01*
G01*
X246400000Y-44300000D02*
X245700000Y-44300000D01*
X246400000Y-45700000D02*
X245700000Y-45700000D01*
X245700000Y-44300000D02*
G75*
G03*
X245700000Y-45700000I0J-700000D01*
G01*
X246400000Y-45700000D02*
G75*
G03*
X246400000Y-44300000I0J700000D01*
G01*
X227350000Y-82400000D02*
X226650000Y-82400000D01*
X227350000Y-83800000D02*
X226650000Y-83800000D01*
X226650000Y-82400000D02*
G75*
G03*
X226650000Y-83800000I0J-700000D01*
G01*
X227350000Y-83800000D02*
G75*
G03*
X227350000Y-82400000I0J700000D01*
G01*
X227350000Y-63350000D02*
X226650000Y-63350000D01*
X227350000Y-64750000D02*
X226650000Y-64750000D01*
X226650000Y-63350000D02*
G75*
G03*
X226650000Y-64750000I0J-700000D01*
G01*
X227350000Y-64750000D02*
G75*
G03*
X227350000Y-63350000I0J700000D01*
G01*
X227350000Y-44300000D02*
X226650000Y-44300000D01*
X227350000Y-45700000D02*
X226650000Y-45700000D01*
X226650000Y-44300000D02*
G75*
G03*
X226650000Y-45700000I0J-700000D01*
G01*
X227350000Y-45700000D02*
G75*
G03*
X227350000Y-44300000I0J700000D01*
G01*
X151150000Y-82400000D02*
X150450000Y-82400000D01*
X151150000Y-83800000D02*
X150450000Y-83800000D01*
X150450000Y-82400000D02*
G75*
G03*
X150450000Y-83800000I0J-700000D01*
G01*
X151150000Y-83800000D02*
G75*
G03*
X151150000Y-82400000I0J700000D01*
G01*
X151150000Y-63350000D02*
X150450000Y-63350000D01*
X151150000Y-64750000D02*
X150450000Y-64750000D01*
X150450000Y-63350000D02*
G75*
G03*
X150450000Y-64750000I0J-700000D01*
G01*
X151150000Y-64750000D02*
G75*
G03*
X151150000Y-63350000I0J700000D01*
G01*
X151150000Y-44300000D02*
X150450000Y-44300000D01*
X151150000Y-45700000D02*
X150450000Y-45700000D01*
X150450000Y-44300000D02*
G75*
G03*
X150450000Y-45700000I0J-700000D01*
G01*
X151150000Y-45700000D02*
G75*
G03*
X151150000Y-44300000I0J700000D01*
G01*
X132100000Y-82400000D02*
X131400000Y-82400000D01*
X132100000Y-83800000D02*
X131400000Y-83800000D01*
X131400000Y-82400000D02*
G75*
G03*
X131400000Y-83800000I0J-700000D01*
G01*
X132100000Y-83800000D02*
G75*
G03*
X132100000Y-82400000I0J700000D01*
G01*
X132100000Y-63350000D02*
X131400000Y-63350000D01*
X132100000Y-64750000D02*
X131400000Y-64750000D01*
X131400000Y-63350000D02*
G75*
G03*
X131400000Y-64750000I0J-700000D01*
G01*
X132100000Y-64750000D02*
G75*
G03*
X132100000Y-63350000I0J700000D01*
G01*
X132100000Y-44300000D02*
X131400000Y-44300000D01*
X132100000Y-45700000D02*
X131400000Y-45700000D01*
X131400000Y-44300000D02*
G75*
G03*
X131400000Y-45700000I0J-700000D01*
G01*
X132100000Y-45700000D02*
G75*
G03*
X132100000Y-44300000I0J700000D01*
G01*
X113050000Y-82400000D02*
X112350000Y-82400000D01*
X113050000Y-83800000D02*
X112350000Y-83800000D01*
X112350000Y-82400000D02*
G75*
G03*
X112350000Y-83800000I0J-700000D01*
G01*
X113050000Y-83800000D02*
G75*
G03*
X113050000Y-82400000I0J700000D01*
G01*
X113050000Y-63350000D02*
X112350000Y-63350000D01*
X113050000Y-64750000D02*
X112350000Y-64750000D01*
X112350000Y-63350000D02*
G75*
G03*
X112350000Y-64750000I0J-700000D01*
G01*
X113050000Y-64750000D02*
G75*
G03*
X113050000Y-63350000I0J700000D01*
G01*
X113050000Y-44300000D02*
X112350000Y-44300000D01*
X113050000Y-45700000D02*
X112350000Y-45700000D01*
X112350000Y-44300000D02*
G75*
G03*
X112350000Y-45700000I0J-700000D01*
G01*
X113050000Y-45700000D02*
G75*
G03*
X113050000Y-44300000I0J700000D01*
G01*
X94000000Y-82400000D02*
X93300000Y-82400000D01*
X94000000Y-83800000D02*
X93300000Y-83800000D01*
X93300000Y-82400000D02*
G75*
G03*
X93300000Y-83800000I0J-700000D01*
G01*
X94000000Y-83800000D02*
G75*
G03*
X94000000Y-82400000I0J700000D01*
G01*
X94000000Y-63350000D02*
X93300000Y-63350000D01*
X94000000Y-64750000D02*
X93300000Y-64750000D01*
X93300000Y-63350000D02*
G75*
G03*
X93300000Y-64750000I0J-700000D01*
G01*
X94000000Y-64750000D02*
G75*
G03*
X94000000Y-63350000I0J700000D01*
G01*
X94000000Y-44300000D02*
X93300000Y-44300000D01*
X94000000Y-45700000D02*
X93300000Y-45700000D01*
X93300000Y-44300000D02*
G75*
G03*
X93300000Y-45700000I0J-700000D01*
G01*
X94000000Y-45700000D02*
G75*
G03*
X94000000Y-44300000I0J700000D01*
G01*
X74950000Y-82400000D02*
X74250000Y-82400000D01*
X74950000Y-83800000D02*
X74250000Y-83800000D01*
X74250000Y-82400000D02*
G75*
G03*
X74250000Y-83800000I0J-700000D01*
G01*
X74950000Y-83800000D02*
G75*
G03*
X74950000Y-82400000I0J700000D01*
G01*
X74950000Y-63350000D02*
X74250000Y-63350000D01*
X74950000Y-64750000D02*
X74250000Y-64750000D01*
X74250000Y-63350000D02*
G75*
G03*
X74250000Y-64750000I0J-700000D01*
G01*
X74950000Y-64750000D02*
G75*
G03*
X74950000Y-63350000I0J700000D01*
G01*
X74950000Y-44300000D02*
X74250000Y-44300000D01*
X74950000Y-45700000D02*
X74250000Y-45700000D01*
X74250000Y-44300000D02*
G75*
G03*
X74250000Y-45700000I0J-700000D01*
G01*
X74950000Y-45700000D02*
G75*
G03*
X74950000Y-44300000I0J700000D01*
G01*
X55900000Y-82400000D02*
X55200000Y-82400000D01*
X55900000Y-83800000D02*
X55200000Y-83800000D01*
X55200000Y-82400000D02*
G75*
G03*
X55200000Y-83800000I0J-700000D01*
G01*
X55900000Y-83800000D02*
G75*
G03*
X55900000Y-82400000I0J700000D01*
G01*
X55900000Y-63350000D02*
X55200000Y-63350000D01*
X55900000Y-64750000D02*
X55200000Y-64750000D01*
X55200000Y-63350000D02*
G75*
G03*
X55200000Y-64750000I0J-700000D01*
G01*
X55900000Y-64750000D02*
G75*
G03*
X55900000Y-63350000I0J700000D01*
G01*
X55900000Y-44300000D02*
X55200000Y-44300000D01*
X55900000Y-45700000D02*
X55200000Y-45700000D01*
X55200000Y-44300000D02*
G75*
G03*
X55200000Y-45700000I0J-700000D01*
G01*
X55900000Y-45700000D02*
G75*
G03*
X55900000Y-44300000I0J700000D01*
G01*
M02*
