M48
; DRILL file {KiCad (5.1.7)-1} date 01/09/21 22:43:46
; FORMAT={-:-/ absolute / inch / decimal}
; #@! TF.CreationDate,2021-01-09T22:43:46+09:00
; #@! TF.GenerationSoftware,Kicad,Pcbnew,(5.1.7)-1
; #@! TF.FileFunction,Plated,1,2,PTH
FMAT,2
INCH
T1C0.0118
T2C0.0157
%
G90
G05
T2
X2.345Y-1.85
X2.345Y-2.6
X2.345Y-3.35
X3.0Y-1.85
X3.0Y-2.6
X3.0Y-3.35
X3.095Y-1.85
X3.095Y-2.6
X3.095Y-3.35
X3.75Y-1.85
X3.75Y-2.6
X3.75Y-3.35
X3.845Y-1.85
X3.845Y-2.6
X3.845Y-3.35
X4.5Y-1.85
X4.5Y-2.6
X4.5Y-3.35
X4.595Y-1.85
X4.595Y-2.6
X4.595Y-3.35
X5.25Y-1.85
X5.25Y-2.6
X5.25Y-3.35
X5.345Y-1.85
X5.345Y-2.6
X5.345Y-3.35
X6.0Y-2.6
X6.0Y-3.35
X6.005Y-1.85
X6.095Y-2.6
X6.0975Y-3.2875
X6.105Y-1.9
X6.7975Y-2.8225
X6.885Y-2.4525
X6.97Y-2.8375
X6.98Y-2.6475
X7.0225Y-2.5275
X7.0525Y-2.5575
X7.0982Y-3.118
X7.1381Y-3.1175
X7.175Y-2.8372
X7.1775Y-3.1179
X7.2263Y-3.1184
X7.2656Y-3.1201
X7.305Y-2.36
X7.3675Y-2.97
X7.4225Y-2.97
X7.465Y-2.97
X7.495Y-2.2775
X7.4996Y-3.72
X7.4997Y-3.6793
X7.5Y-3.635
X7.5Y-3.8075
X7.5001Y-3.7673
X8.985Y-3.35
X8.9975Y-2.6225
X9.0075Y-1.9
X9.095Y-1.85
X9.095Y-2.6
X9.095Y-3.35
X9.75Y-1.85
X9.75Y-2.6
X9.75Y-3.35
X9.845Y-1.85
X9.845Y-2.6
X9.845Y-3.35
X10.5Y-1.85
X10.5Y-2.6
X10.5Y-3.35
X10.595Y-1.85
X10.595Y-2.6
X10.595Y-3.35
X11.25Y-1.85
X11.25Y-2.6
X11.25Y-3.35
X11.345Y-1.85
X11.345Y-2.6
X11.345Y-3.35
X12.0Y-1.85
X12.0Y-2.6
X12.0Y-3.35
T1
G00X4.4508Y-1.7717
M15
G01X4.4232Y-1.7717
M16
G05
G00X2.9508Y-2.5217
M15
G01X2.9232Y-2.5217
M16
G05
G00X9.7008Y-3.2717
M15
G01X9.6732Y-3.2717
M16
G05
G00X8.9508Y-1.7717
M15
G01X8.9232Y-1.7717
M16
G05
G00X11.2008Y-3.2717
M15
G01X11.1732Y-3.2717
M16
G05
G00X10.4508Y-1.7717
M15
G01X10.4232Y-1.7717
M16
G05
G00X4.4508Y-2.5217
M15
G01X4.4232Y-2.5217
M16
G05
G00X11.9508Y-3.2717
M15
G01X11.9232Y-3.2717
M16
G05
G00X8.9508Y-3.2717
M15
G01X8.9232Y-3.2717
M16
G05
G00X2.2008Y-1.7717
M15
G01X2.1732Y-1.7717
M16
G05
G00X4.4508Y-3.2717
M15
G01X4.4232Y-3.2717
M16
G05
G00X9.7008Y-1.7717
M15
G01X9.6732Y-1.7717
M16
G05
G00X10.4508Y-3.2717
M15
G01X10.4232Y-3.2717
M16
G05
G00X5.9508Y-2.5217
M15
G01X5.9232Y-2.5217
M16
G05
G00X5.2008Y-3.2717
M15
G01X5.1732Y-3.2717
M16
G05
G00X5.2008Y-2.5217
M15
G01X5.1732Y-2.5217
M16
G05
G00X5.9508Y-1.7717
M15
G01X5.9232Y-1.7717
M16
G05
G00X11.9508Y-2.5217
M15
G01X11.9232Y-2.5217
M16
G05
G00X2.2008Y-2.5217
M15
G01X2.1732Y-2.5217
M16
G05
G00X10.4508Y-2.5217
M15
G01X10.4232Y-2.5217
M16
G05
G00X3.7008Y-3.2717
M15
G01X3.6732Y-3.2717
M16
G05
G00X2.9508Y-3.2717
M15
G01X2.9232Y-3.2717
M16
G05
G00X11.2008Y-2.5217
M15
G01X11.1732Y-2.5217
M16
G05
G00X11.9508Y-1.7717
M15
G01X11.9232Y-1.7717
M16
G05
G00X9.7008Y-2.5217
M15
G01X9.6732Y-2.5217
M16
G05
G00X2.2008Y-3.2717
M15
G01X2.1732Y-3.2717
M16
G05
G00X2.9508Y-1.7717
M15
G01X2.9232Y-1.7717
M16
G05
G00X3.7008Y-2.5217
M15
G01X3.6732Y-2.5217
M16
G05
G00X5.9508Y-3.2717
M15
G01X5.9232Y-3.2717
M16
G05
G00X11.2008Y-1.7717
M15
G01X11.1732Y-1.7717
M16
G05
G00X3.7008Y-1.7717
M15
G01X3.6732Y-1.7717
M16
G05
G00X5.2008Y-1.7717
M15
G01X5.1732Y-1.7717
M16
G05
G00X8.9508Y-2.5217
M15
G01X8.9232Y-2.5217
M16
G05
T0
M30
