M48
; DRILL file {KiCad (5.1.7)-1} date 01/09/21 22:43:46
; FORMAT={-:-/ absolute / inch / decimal}
; #@! TF.CreationDate,2021-01-09T22:43:46+09:00
; #@! TF.GenerationSoftware,Kicad,Pcbnew,(5.1.7)-1
; #@! TF.FileFunction,NonPlated,1,2,NPTH
FMAT,2
INCH
T1C0.0295
T2C0.0748
T3C0.1181
T4C0.1890
T5C0.1969
%
G90
G05
T1
X6.8925Y-1.6285
X6.8925Y-1.6954
T2
X1.752Y-3.4685
X2.185Y-3.4685
X2.502Y-1.9685
X2.935Y-1.9685
X3.252Y-2.7185
X3.685Y-2.7185
X5.502Y-3.4685
X5.935Y-3.4685
X10.752Y-1.9685
X11.185Y-1.9685
X3.252Y-1.9685
X3.685Y-1.9685
X4.752Y-1.9685
X5.185Y-1.9685
X8.502Y-2.7185
X8.935Y-2.7185
X4.002Y-1.9685
X4.435Y-1.9685
X2.502Y-2.7185
X2.935Y-2.7185
X9.252Y-3.4685
X9.685Y-3.4685
X8.502Y-1.9685
X8.935Y-1.9685
X10.752Y-3.4685
X11.185Y-3.4685
X10.002Y-1.9685
X10.435Y-1.9685
X4.002Y-2.7185
X4.435Y-2.7185
X11.502Y-3.4685
X11.935Y-3.4685
X8.502Y-3.4685
X8.935Y-3.4685
X1.752Y-1.9685
X2.185Y-1.9685
X4.002Y-3.4685
X4.435Y-3.4685
X9.252Y-1.9685
X9.685Y-1.9685
X10.002Y-3.4685
X10.435Y-3.4685
X5.502Y-2.7185
X5.935Y-2.7185
X4.752Y-3.4685
X5.185Y-3.4685
X4.752Y-2.7185
X5.185Y-2.7185
X5.502Y-1.9685
X5.935Y-1.9685
X11.502Y-2.7185
X11.935Y-2.7185
X1.752Y-2.7185
X2.185Y-2.7185
X10.002Y-2.7185
X10.435Y-2.7185
X3.252Y-3.4685
X3.685Y-3.4685
X2.502Y-3.4685
X2.935Y-3.4685
X10.752Y-2.7185
X11.185Y-2.7185
X11.502Y-1.9685
X11.935Y-1.9685
X9.252Y-2.7185
X9.685Y-2.7185
T3
X3.2717Y-2.1142
X3.4685Y-2.2008
X4.7717Y-2.1142
X4.9685Y-2.2008
X8.5217Y-2.8642
X8.7185Y-2.9508
X4.0217Y-2.1142
X4.2185Y-2.2008
X2.5217Y-2.8642
X2.7185Y-2.9508
X9.2717Y-3.6142
X9.4685Y-3.7008
X8.5217Y-2.1142
X8.7185Y-2.2008
X10.7717Y-3.6142
X10.9685Y-3.7008
X10.0217Y-2.1142
X10.2185Y-2.2008
X4.0217Y-2.8642
X4.2185Y-2.9508
X11.5217Y-3.6142
X11.7185Y-3.7008
X8.5217Y-3.6142
X8.7185Y-3.7008
X1.7717Y-2.1142
X1.9685Y-2.2008
X4.0217Y-3.6142
X4.2185Y-3.7008
X9.2717Y-2.1142
X9.4685Y-2.2008
X10.0217Y-3.6142
X10.2185Y-3.7008
X5.5217Y-2.8642
X5.7185Y-2.9508
X4.7717Y-3.6142
X4.9685Y-3.7008
X4.7717Y-2.8642
X4.9685Y-2.9508
X5.5217Y-2.1142
X5.7185Y-2.2008
X11.5217Y-2.8642
X11.7185Y-2.9508
X1.7717Y-2.8642
X1.9685Y-2.9508
X10.0217Y-2.8642
X10.2185Y-2.9508
X3.2717Y-3.6142
X3.4685Y-3.7008
X2.5217Y-3.6142
X2.7185Y-3.7008
X10.7717Y-2.8642
X10.9685Y-2.9508
X11.5217Y-2.1142
X11.7185Y-2.2008
X9.2717Y-2.8642
X9.4685Y-2.9508
X1.7717Y-3.6142
X1.9685Y-3.7008
X2.5217Y-2.1142
X2.7185Y-2.2008
X3.2717Y-2.8642
X3.4685Y-2.9508
X5.5217Y-3.6142
X5.7185Y-3.7008
X10.7717Y-2.1142
X10.9685Y-2.2008
T4
X3.8435Y-2.3435
X3.8435Y-3.0935
X2.3435Y-3.0935
X2.3435Y-2.3435
X11.3435Y-2.3435
X11.3435Y-3.0935
X5.3435Y-2.3435
X5.3435Y-3.0935
X9.8435Y-3.0935
X9.8435Y-2.3435
T5
X4.2185Y-1.9685
X2.7185Y-2.7185
X9.4685Y-3.4685
X8.7185Y-1.9685
X10.9685Y-3.4685
X10.2185Y-1.9685
X4.2185Y-2.7185
X11.7185Y-3.4685
X8.7185Y-3.4685
X1.9685Y-1.9685
X4.2185Y-3.4685
X9.4685Y-1.9685
X10.2185Y-3.4685
X5.7185Y-2.7185
X4.9685Y-3.4685
X4.9685Y-2.7185
X5.7185Y-1.9685
X11.7185Y-2.7185
X1.9685Y-2.7185
X10.2185Y-2.7185
X3.4685Y-3.4685
X2.7185Y-3.4685
X10.9685Y-2.7185
X11.7185Y-1.9685
X9.4685Y-2.7185
X1.9685Y-3.4685
X2.7185Y-1.9685
X3.4685Y-2.7185
X5.7185Y-3.4685
X10.9685Y-1.9685
X3.4685Y-1.9685
X4.9685Y-1.9685
X8.7185Y-2.7185
T0
M30
