G04 #@! TF.GenerationSoftware,KiCad,Pcbnew,(5.1.7)-1*
G04 #@! TF.CreationDate,2021-01-09T22:43:23+09:00*
G04 #@! TF.ProjectId,barracuda,62617272-6163-4756-9461-2e6b69636164,rev?*
G04 #@! TF.SameCoordinates,Original*
G04 #@! TF.FileFunction,Profile,NP*
%FSLAX46Y46*%
G04 Gerber Fmt 4.6, Leading zero omitted, Abs format (unit mm)*
G04 Created by KiCad (PCBNEW (5.1.7)-1) date 2021-01-09 22:43:23*
%MOMM*%
%LPD*%
G01*
G04 APERTURE LIST*
G04 #@! TA.AperFunction,Profile*
%ADD10C,0.050000*%
G04 #@! TD*
G04 #@! TA.AperFunction,Profile*
%ADD11C,0.100000*%
G04 #@! TD*
G04 APERTURE END LIST*
D10*
X39370000Y-41910000D02*
G75*
G02*
X41910000Y-39370000I2540000J0D01*
G01*
X176022000Y-39370000D02*
X41910000Y-39370000D01*
X178615000Y-40904500D02*
X176022000Y-39370000D01*
X191008000Y-39370000D02*
X188415000Y-40904500D01*
X305816000Y-39370000D02*
X191008000Y-39370000D01*
X305816000Y-39370000D02*
G75*
G02*
X308356000Y-41910000I0J-2540000D01*
G01*
X308356000Y-96520000D02*
X308356000Y-41910000D01*
X308356000Y-96520000D02*
G75*
G02*
X305816000Y-99060000I-2540000J0D01*
G01*
X41910000Y-99060000D02*
G75*
G02*
X39370000Y-96520000I0J2540000D01*
G01*
X39370000Y-96520000D02*
X39370000Y-41910000D01*
X41910000Y-99060000D02*
X305816000Y-99060000D01*
D11*
X178615000Y-40904500D02*
X180715000Y-40904500D01*
X180715000Y-40904500D02*
X180715000Y-42784500D01*
X180715000Y-42784500D02*
X181565000Y-42784500D01*
X181565000Y-42784500D02*
X181565000Y-40904500D01*
X181565000Y-40904500D02*
X185465000Y-40904500D01*
X185465000Y-40904500D02*
X185465000Y-42784500D01*
X185465000Y-42784500D02*
X186315000Y-42784500D01*
X186315000Y-42784500D02*
X186315000Y-40904500D01*
X186315000Y-40904500D02*
X188415000Y-40904500D01*
M02*
