G04 #@! TF.GenerationSoftware,KiCad,Pcbnew,(5.1.7)-1*
G04 #@! TF.CreationDate,2021-01-09T22:52:11+09:00*
G04 #@! TF.ProjectId,barracuda_bottom,62617272-6163-4756-9461-5f626f74746f,rev?*
G04 #@! TF.SameCoordinates,Original*
G04 #@! TF.FileFunction,Copper,L1,Top*
G04 #@! TF.FilePolarity,Positive*
%FSLAX46Y46*%
G04 Gerber Fmt 4.6, Leading zero omitted, Abs format (unit mm)*
G04 Created by KiCad (PCBNEW (5.1.7)-1) date 2021-01-09 22:52:11*
%MOMM*%
%LPD*%
G01*
G04 APERTURE LIST*
G04 #@! TA.AperFunction,ComponentPad*
%ADD10C,4.200000*%
G04 #@! TD*
G04 #@! TA.AperFunction,NonConductor*
%ADD11C,0.254000*%
G04 #@! TD*
G04 #@! TA.AperFunction,NonConductor*
%ADD12C,0.100000*%
G04 #@! TD*
G04 APERTURE END LIST*
D10*
X250025000Y-78575000D03*
X288125000Y-78575000D03*
X97625000Y-59525000D03*
X97625000Y-78575000D03*
X288125000Y-59525000D03*
X135725000Y-59525000D03*
X250025000Y-59525000D03*
X135725000Y-78575000D03*
X59525000Y-78575000D03*
X59525000Y-59525000D03*
D11*
X172186513Y-40030666D02*
X172187000Y-40035301D01*
X172187001Y-44545919D01*
X172189758Y-44573910D01*
X172189731Y-44577755D01*
X172190631Y-44586926D01*
X172203586Y-44710177D01*
X172215615Y-44768774D01*
X172226822Y-44827528D01*
X172229486Y-44836350D01*
X172266133Y-44954738D01*
X172289308Y-45009868D01*
X172311722Y-45065347D01*
X172316049Y-45073483D01*
X172374992Y-45182498D01*
X172408437Y-45232082D01*
X172441197Y-45282145D01*
X172447022Y-45289286D01*
X172526018Y-45384776D01*
X172568467Y-45426930D01*
X172610315Y-45469665D01*
X172617416Y-45475539D01*
X172713455Y-45553867D01*
X172763281Y-45586972D01*
X172812638Y-45620767D01*
X172820744Y-45625150D01*
X172930167Y-45683332D01*
X172985459Y-45706121D01*
X173040455Y-45729693D01*
X173049258Y-45732418D01*
X173167899Y-45768237D01*
X173226583Y-45779857D01*
X173285094Y-45792294D01*
X173294250Y-45793256D01*
X173294255Y-45793257D01*
X173294259Y-45793257D01*
X173417597Y-45805350D01*
X173417598Y-45805350D01*
X173449581Y-45808500D01*
X189389419Y-45808500D01*
X189417419Y-45805742D01*
X189421255Y-45805769D01*
X189430426Y-45804869D01*
X189553677Y-45791914D01*
X189612274Y-45779885D01*
X189671028Y-45768678D01*
X189679850Y-45766014D01*
X189798238Y-45729367D01*
X189853368Y-45706192D01*
X189908847Y-45683778D01*
X189916983Y-45679451D01*
X190025998Y-45620508D01*
X190075582Y-45587063D01*
X190125645Y-45554303D01*
X190132786Y-45548478D01*
X190228276Y-45469482D01*
X190270430Y-45427033D01*
X190313165Y-45385185D01*
X190319039Y-45378084D01*
X190397367Y-45282045D01*
X190430472Y-45232219D01*
X190464267Y-45182862D01*
X190468650Y-45174756D01*
X190526832Y-45065333D01*
X190549621Y-45010041D01*
X190573193Y-44955045D01*
X190575918Y-44946242D01*
X190611737Y-44827601D01*
X190623359Y-44768908D01*
X190635794Y-44710406D01*
X190636756Y-44701250D01*
X190636757Y-44701245D01*
X190636757Y-44701241D01*
X190648850Y-44577903D01*
X190648850Y-44577902D01*
X190652000Y-44545919D01*
X190652000Y-40037275D01*
X190652666Y-40030487D01*
X190657301Y-40030000D01*
X305783721Y-40030000D01*
X306180545Y-40068909D01*
X306531208Y-40174780D01*
X306854625Y-40346744D01*
X307138484Y-40578254D01*
X307371965Y-40860486D01*
X307546183Y-41182695D01*
X307654502Y-41532614D01*
X307696001Y-41927452D01*
X307696000Y-96487721D01*
X307657091Y-96884545D01*
X307551220Y-97235206D01*
X307379257Y-97558623D01*
X307147748Y-97842482D01*
X306865514Y-98075965D01*
X306543304Y-98250184D01*
X306193385Y-98358502D01*
X305798557Y-98400000D01*
X41942279Y-98400000D01*
X41545455Y-98361091D01*
X41194794Y-98255220D01*
X40871377Y-98083257D01*
X40587518Y-97851748D01*
X40354035Y-97569514D01*
X40179816Y-97247304D01*
X40071498Y-96897385D01*
X40030000Y-96502557D01*
X40030000Y-78305626D01*
X56790000Y-78305626D01*
X56790000Y-78844374D01*
X56895105Y-79372770D01*
X57101275Y-79870508D01*
X57400587Y-80318461D01*
X57781539Y-80699413D01*
X58229492Y-80998725D01*
X58727230Y-81204895D01*
X59255626Y-81310000D01*
X59794374Y-81310000D01*
X60322770Y-81204895D01*
X60820508Y-80998725D01*
X61268461Y-80699413D01*
X61649413Y-80318461D01*
X61948725Y-79870508D01*
X62154895Y-79372770D01*
X62260000Y-78844374D01*
X62260000Y-78305626D01*
X94890000Y-78305626D01*
X94890000Y-78844374D01*
X94995105Y-79372770D01*
X95201275Y-79870508D01*
X95500587Y-80318461D01*
X95881539Y-80699413D01*
X96329492Y-80998725D01*
X96827230Y-81204895D01*
X97355626Y-81310000D01*
X97894374Y-81310000D01*
X98422770Y-81204895D01*
X98920508Y-80998725D01*
X99368461Y-80699413D01*
X99749413Y-80318461D01*
X100048725Y-79870508D01*
X100254895Y-79372770D01*
X100360000Y-78844374D01*
X100360000Y-78305626D01*
X132990000Y-78305626D01*
X132990000Y-78844374D01*
X133095105Y-79372770D01*
X133301275Y-79870508D01*
X133600587Y-80318461D01*
X133981539Y-80699413D01*
X134429492Y-80998725D01*
X134927230Y-81204895D01*
X135455626Y-81310000D01*
X135994374Y-81310000D01*
X136522770Y-81204895D01*
X137020508Y-80998725D01*
X137468461Y-80699413D01*
X137849413Y-80318461D01*
X138148725Y-79870508D01*
X138354895Y-79372770D01*
X138460000Y-78844374D01*
X138460000Y-78305626D01*
X247290000Y-78305626D01*
X247290000Y-78844374D01*
X247395105Y-79372770D01*
X247601275Y-79870508D01*
X247900587Y-80318461D01*
X248281539Y-80699413D01*
X248729492Y-80998725D01*
X249227230Y-81204895D01*
X249755626Y-81310000D01*
X250294374Y-81310000D01*
X250822770Y-81204895D01*
X251320508Y-80998725D01*
X251768461Y-80699413D01*
X252149413Y-80318461D01*
X252448725Y-79870508D01*
X252654895Y-79372770D01*
X252760000Y-78844374D01*
X252760000Y-78305626D01*
X285390000Y-78305626D01*
X285390000Y-78844374D01*
X285495105Y-79372770D01*
X285701275Y-79870508D01*
X286000587Y-80318461D01*
X286381539Y-80699413D01*
X286829492Y-80998725D01*
X287327230Y-81204895D01*
X287855626Y-81310000D01*
X288394374Y-81310000D01*
X288922770Y-81204895D01*
X289420508Y-80998725D01*
X289868461Y-80699413D01*
X290249413Y-80318461D01*
X290548725Y-79870508D01*
X290754895Y-79372770D01*
X290860000Y-78844374D01*
X290860000Y-78305626D01*
X290754895Y-77777230D01*
X290548725Y-77279492D01*
X290249413Y-76831539D01*
X289868461Y-76450587D01*
X289420508Y-76151275D01*
X288922770Y-75945105D01*
X288394374Y-75840000D01*
X287855626Y-75840000D01*
X287327230Y-75945105D01*
X286829492Y-76151275D01*
X286381539Y-76450587D01*
X286000587Y-76831539D01*
X285701275Y-77279492D01*
X285495105Y-77777230D01*
X285390000Y-78305626D01*
X252760000Y-78305626D01*
X252654895Y-77777230D01*
X252448725Y-77279492D01*
X252149413Y-76831539D01*
X251768461Y-76450587D01*
X251320508Y-76151275D01*
X250822770Y-75945105D01*
X250294374Y-75840000D01*
X249755626Y-75840000D01*
X249227230Y-75945105D01*
X248729492Y-76151275D01*
X248281539Y-76450587D01*
X247900587Y-76831539D01*
X247601275Y-77279492D01*
X247395105Y-77777230D01*
X247290000Y-78305626D01*
X138460000Y-78305626D01*
X138354895Y-77777230D01*
X138148725Y-77279492D01*
X137849413Y-76831539D01*
X137468461Y-76450587D01*
X137020508Y-76151275D01*
X136522770Y-75945105D01*
X135994374Y-75840000D01*
X135455626Y-75840000D01*
X134927230Y-75945105D01*
X134429492Y-76151275D01*
X133981539Y-76450587D01*
X133600587Y-76831539D01*
X133301275Y-77279492D01*
X133095105Y-77777230D01*
X132990000Y-78305626D01*
X100360000Y-78305626D01*
X100254895Y-77777230D01*
X100048725Y-77279492D01*
X99749413Y-76831539D01*
X99368461Y-76450587D01*
X98920508Y-76151275D01*
X98422770Y-75945105D01*
X97894374Y-75840000D01*
X97355626Y-75840000D01*
X96827230Y-75945105D01*
X96329492Y-76151275D01*
X95881539Y-76450587D01*
X95500587Y-76831539D01*
X95201275Y-77279492D01*
X94995105Y-77777230D01*
X94890000Y-78305626D01*
X62260000Y-78305626D01*
X62154895Y-77777230D01*
X61948725Y-77279492D01*
X61649413Y-76831539D01*
X61268461Y-76450587D01*
X60820508Y-76151275D01*
X60322770Y-75945105D01*
X59794374Y-75840000D01*
X59255626Y-75840000D01*
X58727230Y-75945105D01*
X58229492Y-76151275D01*
X57781539Y-76450587D01*
X57400587Y-76831539D01*
X57101275Y-77279492D01*
X56895105Y-77777230D01*
X56790000Y-78305626D01*
X40030000Y-78305626D01*
X40030000Y-59255626D01*
X56790000Y-59255626D01*
X56790000Y-59794374D01*
X56895105Y-60322770D01*
X57101275Y-60820508D01*
X57400587Y-61268461D01*
X57781539Y-61649413D01*
X58229492Y-61948725D01*
X58727230Y-62154895D01*
X59255626Y-62260000D01*
X59794374Y-62260000D01*
X60322770Y-62154895D01*
X60820508Y-61948725D01*
X61268461Y-61649413D01*
X61649413Y-61268461D01*
X61948725Y-60820508D01*
X62154895Y-60322770D01*
X62260000Y-59794374D01*
X62260000Y-59255626D01*
X94890000Y-59255626D01*
X94890000Y-59794374D01*
X94995105Y-60322770D01*
X95201275Y-60820508D01*
X95500587Y-61268461D01*
X95881539Y-61649413D01*
X96329492Y-61948725D01*
X96827230Y-62154895D01*
X97355626Y-62260000D01*
X97894374Y-62260000D01*
X98422770Y-62154895D01*
X98920508Y-61948725D01*
X99368461Y-61649413D01*
X99749413Y-61268461D01*
X100048725Y-60820508D01*
X100254895Y-60322770D01*
X100360000Y-59794374D01*
X100360000Y-59255626D01*
X132990000Y-59255626D01*
X132990000Y-59794374D01*
X133095105Y-60322770D01*
X133301275Y-60820508D01*
X133600587Y-61268461D01*
X133981539Y-61649413D01*
X134429492Y-61948725D01*
X134927230Y-62154895D01*
X135455626Y-62260000D01*
X135994374Y-62260000D01*
X136522770Y-62154895D01*
X137020508Y-61948725D01*
X137468461Y-61649413D01*
X137849413Y-61268461D01*
X138148725Y-60820508D01*
X138354895Y-60322770D01*
X138460000Y-59794374D01*
X138460000Y-59255626D01*
X247290000Y-59255626D01*
X247290000Y-59794374D01*
X247395105Y-60322770D01*
X247601275Y-60820508D01*
X247900587Y-61268461D01*
X248281539Y-61649413D01*
X248729492Y-61948725D01*
X249227230Y-62154895D01*
X249755626Y-62260000D01*
X250294374Y-62260000D01*
X250822770Y-62154895D01*
X251320508Y-61948725D01*
X251768461Y-61649413D01*
X252149413Y-61268461D01*
X252448725Y-60820508D01*
X252654895Y-60322770D01*
X252760000Y-59794374D01*
X252760000Y-59255626D01*
X285390000Y-59255626D01*
X285390000Y-59794374D01*
X285495105Y-60322770D01*
X285701275Y-60820508D01*
X286000587Y-61268461D01*
X286381539Y-61649413D01*
X286829492Y-61948725D01*
X287327230Y-62154895D01*
X287855626Y-62260000D01*
X288394374Y-62260000D01*
X288922770Y-62154895D01*
X289420508Y-61948725D01*
X289868461Y-61649413D01*
X290249413Y-61268461D01*
X290548725Y-60820508D01*
X290754895Y-60322770D01*
X290860000Y-59794374D01*
X290860000Y-59255626D01*
X290754895Y-58727230D01*
X290548725Y-58229492D01*
X290249413Y-57781539D01*
X289868461Y-57400587D01*
X289420508Y-57101275D01*
X288922770Y-56895105D01*
X288394374Y-56790000D01*
X287855626Y-56790000D01*
X287327230Y-56895105D01*
X286829492Y-57101275D01*
X286381539Y-57400587D01*
X286000587Y-57781539D01*
X285701275Y-58229492D01*
X285495105Y-58727230D01*
X285390000Y-59255626D01*
X252760000Y-59255626D01*
X252654895Y-58727230D01*
X252448725Y-58229492D01*
X252149413Y-57781539D01*
X251768461Y-57400587D01*
X251320508Y-57101275D01*
X250822770Y-56895105D01*
X250294374Y-56790000D01*
X249755626Y-56790000D01*
X249227230Y-56895105D01*
X248729492Y-57101275D01*
X248281539Y-57400587D01*
X247900587Y-57781539D01*
X247601275Y-58229492D01*
X247395105Y-58727230D01*
X247290000Y-59255626D01*
X138460000Y-59255626D01*
X138354895Y-58727230D01*
X138148725Y-58229492D01*
X137849413Y-57781539D01*
X137468461Y-57400587D01*
X137020508Y-57101275D01*
X136522770Y-56895105D01*
X135994374Y-56790000D01*
X135455626Y-56790000D01*
X134927230Y-56895105D01*
X134429492Y-57101275D01*
X133981539Y-57400587D01*
X133600587Y-57781539D01*
X133301275Y-58229492D01*
X133095105Y-58727230D01*
X132990000Y-59255626D01*
X100360000Y-59255626D01*
X100254895Y-58727230D01*
X100048725Y-58229492D01*
X99749413Y-57781539D01*
X99368461Y-57400587D01*
X98920508Y-57101275D01*
X98422770Y-56895105D01*
X97894374Y-56790000D01*
X97355626Y-56790000D01*
X96827230Y-56895105D01*
X96329492Y-57101275D01*
X95881539Y-57400587D01*
X95500587Y-57781539D01*
X95201275Y-58229492D01*
X94995105Y-58727230D01*
X94890000Y-59255626D01*
X62260000Y-59255626D01*
X62154895Y-58727230D01*
X61948725Y-58229492D01*
X61649413Y-57781539D01*
X61268461Y-57400587D01*
X60820508Y-57101275D01*
X60322770Y-56895105D01*
X59794374Y-56790000D01*
X59255626Y-56790000D01*
X58727230Y-56895105D01*
X58229492Y-57101275D01*
X57781539Y-57400587D01*
X57400587Y-57781539D01*
X57101275Y-58229492D01*
X56895105Y-58727230D01*
X56790000Y-59255626D01*
X40030000Y-59255626D01*
X40030000Y-41942279D01*
X40068909Y-41545455D01*
X40174780Y-41194792D01*
X40346744Y-40871375D01*
X40578254Y-40587516D01*
X40860486Y-40354035D01*
X41182695Y-40179817D01*
X41532614Y-40071498D01*
X41927443Y-40030000D01*
X172179725Y-40030000D01*
X172186513Y-40030666D01*
G04 #@! TA.AperFunction,NonConductor*
D12*
G36*
X172186513Y-40030666D02*
G01*
X172187000Y-40035301D01*
X172187001Y-44545919D01*
X172189758Y-44573910D01*
X172189731Y-44577755D01*
X172190631Y-44586926D01*
X172203586Y-44710177D01*
X172215615Y-44768774D01*
X172226822Y-44827528D01*
X172229486Y-44836350D01*
X172266133Y-44954738D01*
X172289308Y-45009868D01*
X172311722Y-45065347D01*
X172316049Y-45073483D01*
X172374992Y-45182498D01*
X172408437Y-45232082D01*
X172441197Y-45282145D01*
X172447022Y-45289286D01*
X172526018Y-45384776D01*
X172568467Y-45426930D01*
X172610315Y-45469665D01*
X172617416Y-45475539D01*
X172713455Y-45553867D01*
X172763281Y-45586972D01*
X172812638Y-45620767D01*
X172820744Y-45625150D01*
X172930167Y-45683332D01*
X172985459Y-45706121D01*
X173040455Y-45729693D01*
X173049258Y-45732418D01*
X173167899Y-45768237D01*
X173226583Y-45779857D01*
X173285094Y-45792294D01*
X173294250Y-45793256D01*
X173294255Y-45793257D01*
X173294259Y-45793257D01*
X173417597Y-45805350D01*
X173417598Y-45805350D01*
X173449581Y-45808500D01*
X189389419Y-45808500D01*
X189417419Y-45805742D01*
X189421255Y-45805769D01*
X189430426Y-45804869D01*
X189553677Y-45791914D01*
X189612274Y-45779885D01*
X189671028Y-45768678D01*
X189679850Y-45766014D01*
X189798238Y-45729367D01*
X189853368Y-45706192D01*
X189908847Y-45683778D01*
X189916983Y-45679451D01*
X190025998Y-45620508D01*
X190075582Y-45587063D01*
X190125645Y-45554303D01*
X190132786Y-45548478D01*
X190228276Y-45469482D01*
X190270430Y-45427033D01*
X190313165Y-45385185D01*
X190319039Y-45378084D01*
X190397367Y-45282045D01*
X190430472Y-45232219D01*
X190464267Y-45182862D01*
X190468650Y-45174756D01*
X190526832Y-45065333D01*
X190549621Y-45010041D01*
X190573193Y-44955045D01*
X190575918Y-44946242D01*
X190611737Y-44827601D01*
X190623359Y-44768908D01*
X190635794Y-44710406D01*
X190636756Y-44701250D01*
X190636757Y-44701245D01*
X190636757Y-44701241D01*
X190648850Y-44577903D01*
X190648850Y-44577902D01*
X190652000Y-44545919D01*
X190652000Y-40037275D01*
X190652666Y-40030487D01*
X190657301Y-40030000D01*
X305783721Y-40030000D01*
X306180545Y-40068909D01*
X306531208Y-40174780D01*
X306854625Y-40346744D01*
X307138484Y-40578254D01*
X307371965Y-40860486D01*
X307546183Y-41182695D01*
X307654502Y-41532614D01*
X307696001Y-41927452D01*
X307696000Y-96487721D01*
X307657091Y-96884545D01*
X307551220Y-97235206D01*
X307379257Y-97558623D01*
X307147748Y-97842482D01*
X306865514Y-98075965D01*
X306543304Y-98250184D01*
X306193385Y-98358502D01*
X305798557Y-98400000D01*
X41942279Y-98400000D01*
X41545455Y-98361091D01*
X41194794Y-98255220D01*
X40871377Y-98083257D01*
X40587518Y-97851748D01*
X40354035Y-97569514D01*
X40179816Y-97247304D01*
X40071498Y-96897385D01*
X40030000Y-96502557D01*
X40030000Y-78305626D01*
X56790000Y-78305626D01*
X56790000Y-78844374D01*
X56895105Y-79372770D01*
X57101275Y-79870508D01*
X57400587Y-80318461D01*
X57781539Y-80699413D01*
X58229492Y-80998725D01*
X58727230Y-81204895D01*
X59255626Y-81310000D01*
X59794374Y-81310000D01*
X60322770Y-81204895D01*
X60820508Y-80998725D01*
X61268461Y-80699413D01*
X61649413Y-80318461D01*
X61948725Y-79870508D01*
X62154895Y-79372770D01*
X62260000Y-78844374D01*
X62260000Y-78305626D01*
X94890000Y-78305626D01*
X94890000Y-78844374D01*
X94995105Y-79372770D01*
X95201275Y-79870508D01*
X95500587Y-80318461D01*
X95881539Y-80699413D01*
X96329492Y-80998725D01*
X96827230Y-81204895D01*
X97355626Y-81310000D01*
X97894374Y-81310000D01*
X98422770Y-81204895D01*
X98920508Y-80998725D01*
X99368461Y-80699413D01*
X99749413Y-80318461D01*
X100048725Y-79870508D01*
X100254895Y-79372770D01*
X100360000Y-78844374D01*
X100360000Y-78305626D01*
X132990000Y-78305626D01*
X132990000Y-78844374D01*
X133095105Y-79372770D01*
X133301275Y-79870508D01*
X133600587Y-80318461D01*
X133981539Y-80699413D01*
X134429492Y-80998725D01*
X134927230Y-81204895D01*
X135455626Y-81310000D01*
X135994374Y-81310000D01*
X136522770Y-81204895D01*
X137020508Y-80998725D01*
X137468461Y-80699413D01*
X137849413Y-80318461D01*
X138148725Y-79870508D01*
X138354895Y-79372770D01*
X138460000Y-78844374D01*
X138460000Y-78305626D01*
X247290000Y-78305626D01*
X247290000Y-78844374D01*
X247395105Y-79372770D01*
X247601275Y-79870508D01*
X247900587Y-80318461D01*
X248281539Y-80699413D01*
X248729492Y-80998725D01*
X249227230Y-81204895D01*
X249755626Y-81310000D01*
X250294374Y-81310000D01*
X250822770Y-81204895D01*
X251320508Y-80998725D01*
X251768461Y-80699413D01*
X252149413Y-80318461D01*
X252448725Y-79870508D01*
X252654895Y-79372770D01*
X252760000Y-78844374D01*
X252760000Y-78305626D01*
X285390000Y-78305626D01*
X285390000Y-78844374D01*
X285495105Y-79372770D01*
X285701275Y-79870508D01*
X286000587Y-80318461D01*
X286381539Y-80699413D01*
X286829492Y-80998725D01*
X287327230Y-81204895D01*
X287855626Y-81310000D01*
X288394374Y-81310000D01*
X288922770Y-81204895D01*
X289420508Y-80998725D01*
X289868461Y-80699413D01*
X290249413Y-80318461D01*
X290548725Y-79870508D01*
X290754895Y-79372770D01*
X290860000Y-78844374D01*
X290860000Y-78305626D01*
X290754895Y-77777230D01*
X290548725Y-77279492D01*
X290249413Y-76831539D01*
X289868461Y-76450587D01*
X289420508Y-76151275D01*
X288922770Y-75945105D01*
X288394374Y-75840000D01*
X287855626Y-75840000D01*
X287327230Y-75945105D01*
X286829492Y-76151275D01*
X286381539Y-76450587D01*
X286000587Y-76831539D01*
X285701275Y-77279492D01*
X285495105Y-77777230D01*
X285390000Y-78305626D01*
X252760000Y-78305626D01*
X252654895Y-77777230D01*
X252448725Y-77279492D01*
X252149413Y-76831539D01*
X251768461Y-76450587D01*
X251320508Y-76151275D01*
X250822770Y-75945105D01*
X250294374Y-75840000D01*
X249755626Y-75840000D01*
X249227230Y-75945105D01*
X248729492Y-76151275D01*
X248281539Y-76450587D01*
X247900587Y-76831539D01*
X247601275Y-77279492D01*
X247395105Y-77777230D01*
X247290000Y-78305626D01*
X138460000Y-78305626D01*
X138354895Y-77777230D01*
X138148725Y-77279492D01*
X137849413Y-76831539D01*
X137468461Y-76450587D01*
X137020508Y-76151275D01*
X136522770Y-75945105D01*
X135994374Y-75840000D01*
X135455626Y-75840000D01*
X134927230Y-75945105D01*
X134429492Y-76151275D01*
X133981539Y-76450587D01*
X133600587Y-76831539D01*
X133301275Y-77279492D01*
X133095105Y-77777230D01*
X132990000Y-78305626D01*
X100360000Y-78305626D01*
X100254895Y-77777230D01*
X100048725Y-77279492D01*
X99749413Y-76831539D01*
X99368461Y-76450587D01*
X98920508Y-76151275D01*
X98422770Y-75945105D01*
X97894374Y-75840000D01*
X97355626Y-75840000D01*
X96827230Y-75945105D01*
X96329492Y-76151275D01*
X95881539Y-76450587D01*
X95500587Y-76831539D01*
X95201275Y-77279492D01*
X94995105Y-77777230D01*
X94890000Y-78305626D01*
X62260000Y-78305626D01*
X62154895Y-77777230D01*
X61948725Y-77279492D01*
X61649413Y-76831539D01*
X61268461Y-76450587D01*
X60820508Y-76151275D01*
X60322770Y-75945105D01*
X59794374Y-75840000D01*
X59255626Y-75840000D01*
X58727230Y-75945105D01*
X58229492Y-76151275D01*
X57781539Y-76450587D01*
X57400587Y-76831539D01*
X57101275Y-77279492D01*
X56895105Y-77777230D01*
X56790000Y-78305626D01*
X40030000Y-78305626D01*
X40030000Y-59255626D01*
X56790000Y-59255626D01*
X56790000Y-59794374D01*
X56895105Y-60322770D01*
X57101275Y-60820508D01*
X57400587Y-61268461D01*
X57781539Y-61649413D01*
X58229492Y-61948725D01*
X58727230Y-62154895D01*
X59255626Y-62260000D01*
X59794374Y-62260000D01*
X60322770Y-62154895D01*
X60820508Y-61948725D01*
X61268461Y-61649413D01*
X61649413Y-61268461D01*
X61948725Y-60820508D01*
X62154895Y-60322770D01*
X62260000Y-59794374D01*
X62260000Y-59255626D01*
X94890000Y-59255626D01*
X94890000Y-59794374D01*
X94995105Y-60322770D01*
X95201275Y-60820508D01*
X95500587Y-61268461D01*
X95881539Y-61649413D01*
X96329492Y-61948725D01*
X96827230Y-62154895D01*
X97355626Y-62260000D01*
X97894374Y-62260000D01*
X98422770Y-62154895D01*
X98920508Y-61948725D01*
X99368461Y-61649413D01*
X99749413Y-61268461D01*
X100048725Y-60820508D01*
X100254895Y-60322770D01*
X100360000Y-59794374D01*
X100360000Y-59255626D01*
X132990000Y-59255626D01*
X132990000Y-59794374D01*
X133095105Y-60322770D01*
X133301275Y-60820508D01*
X133600587Y-61268461D01*
X133981539Y-61649413D01*
X134429492Y-61948725D01*
X134927230Y-62154895D01*
X135455626Y-62260000D01*
X135994374Y-62260000D01*
X136522770Y-62154895D01*
X137020508Y-61948725D01*
X137468461Y-61649413D01*
X137849413Y-61268461D01*
X138148725Y-60820508D01*
X138354895Y-60322770D01*
X138460000Y-59794374D01*
X138460000Y-59255626D01*
X247290000Y-59255626D01*
X247290000Y-59794374D01*
X247395105Y-60322770D01*
X247601275Y-60820508D01*
X247900587Y-61268461D01*
X248281539Y-61649413D01*
X248729492Y-61948725D01*
X249227230Y-62154895D01*
X249755626Y-62260000D01*
X250294374Y-62260000D01*
X250822770Y-62154895D01*
X251320508Y-61948725D01*
X251768461Y-61649413D01*
X252149413Y-61268461D01*
X252448725Y-60820508D01*
X252654895Y-60322770D01*
X252760000Y-59794374D01*
X252760000Y-59255626D01*
X285390000Y-59255626D01*
X285390000Y-59794374D01*
X285495105Y-60322770D01*
X285701275Y-60820508D01*
X286000587Y-61268461D01*
X286381539Y-61649413D01*
X286829492Y-61948725D01*
X287327230Y-62154895D01*
X287855626Y-62260000D01*
X288394374Y-62260000D01*
X288922770Y-62154895D01*
X289420508Y-61948725D01*
X289868461Y-61649413D01*
X290249413Y-61268461D01*
X290548725Y-60820508D01*
X290754895Y-60322770D01*
X290860000Y-59794374D01*
X290860000Y-59255626D01*
X290754895Y-58727230D01*
X290548725Y-58229492D01*
X290249413Y-57781539D01*
X289868461Y-57400587D01*
X289420508Y-57101275D01*
X288922770Y-56895105D01*
X288394374Y-56790000D01*
X287855626Y-56790000D01*
X287327230Y-56895105D01*
X286829492Y-57101275D01*
X286381539Y-57400587D01*
X286000587Y-57781539D01*
X285701275Y-58229492D01*
X285495105Y-58727230D01*
X285390000Y-59255626D01*
X252760000Y-59255626D01*
X252654895Y-58727230D01*
X252448725Y-58229492D01*
X252149413Y-57781539D01*
X251768461Y-57400587D01*
X251320508Y-57101275D01*
X250822770Y-56895105D01*
X250294374Y-56790000D01*
X249755626Y-56790000D01*
X249227230Y-56895105D01*
X248729492Y-57101275D01*
X248281539Y-57400587D01*
X247900587Y-57781539D01*
X247601275Y-58229492D01*
X247395105Y-58727230D01*
X247290000Y-59255626D01*
X138460000Y-59255626D01*
X138354895Y-58727230D01*
X138148725Y-58229492D01*
X137849413Y-57781539D01*
X137468461Y-57400587D01*
X137020508Y-57101275D01*
X136522770Y-56895105D01*
X135994374Y-56790000D01*
X135455626Y-56790000D01*
X134927230Y-56895105D01*
X134429492Y-57101275D01*
X133981539Y-57400587D01*
X133600587Y-57781539D01*
X133301275Y-58229492D01*
X133095105Y-58727230D01*
X132990000Y-59255626D01*
X100360000Y-59255626D01*
X100254895Y-58727230D01*
X100048725Y-58229492D01*
X99749413Y-57781539D01*
X99368461Y-57400587D01*
X98920508Y-57101275D01*
X98422770Y-56895105D01*
X97894374Y-56790000D01*
X97355626Y-56790000D01*
X96827230Y-56895105D01*
X96329492Y-57101275D01*
X95881539Y-57400587D01*
X95500587Y-57781539D01*
X95201275Y-58229492D01*
X94995105Y-58727230D01*
X94890000Y-59255626D01*
X62260000Y-59255626D01*
X62154895Y-58727230D01*
X61948725Y-58229492D01*
X61649413Y-57781539D01*
X61268461Y-57400587D01*
X60820508Y-57101275D01*
X60322770Y-56895105D01*
X59794374Y-56790000D01*
X59255626Y-56790000D01*
X58727230Y-56895105D01*
X58229492Y-57101275D01*
X57781539Y-57400587D01*
X57400587Y-57781539D01*
X57101275Y-58229492D01*
X56895105Y-58727230D01*
X56790000Y-59255626D01*
X40030000Y-59255626D01*
X40030000Y-41942279D01*
X40068909Y-41545455D01*
X40174780Y-41194792D01*
X40346744Y-40871375D01*
X40578254Y-40587516D01*
X40860486Y-40354035D01*
X41182695Y-40179817D01*
X41532614Y-40071498D01*
X41927443Y-40030000D01*
X172179725Y-40030000D01*
X172186513Y-40030666D01*
G37*
G04 #@! TD.AperFunction*
M02*
