<?xml version="1.0"?>
<!-- Generated by SVGo -->
<svg width="301.752mm" height="76.152mm"
     viewBox="0.000 0.000 301.752 76.152"
     xmlns="http://www.w3.org/2000/svg" 
     xmlns:xlink="http://www.w3.org/1999/xlink">
<polygon points="293.752,5.001 293.987,5.010 294.221,5.037 294.452,5.083 294.679,5.147 294.900,5.229 295.113,5.327 295.319,5.443 295.515,5.573 295.700,5.719 295.873,5.879 296.033,6.052 296.179,6.237 296.309,6.433 296.425,6.639 296.523,6.852 296.605,7.073 296.669,7.300 296.715,7.531 296.742,7.765 296.752,8.001 296.752,68.152 296.742,68.387 296.715,68.621 296.669,68.852 296.605,69.079 296.523,69.300 296.425,69.513 296.309,69.719 296.179,69.915 296.033,70.100 295.873,70.273 295.700,70.433 295.515,70.579 295.319,70.709 295.113,70.825 294.900,70.923 294.679,71.005 294.452,71.069 294.221,71.115 293.987,71.142 293.752,71.152 8.001,71.152 7.765,71.142 7.531,71.115 7.300,71.069 7.073,71.005 6.852,70.923 6.639,70.825 6.433,70.709 6.237,70.579 6.052,70.433 5.879,70.273 5.719,70.100 5.573,69.915 5.443,69.719 5.327,69.513 5.229,69.300 5.147,69.079 5.083,68.852 5.037,68.621 5.010,68.387 5.000,68.151 5.001,8.001 5.010,7.765 5.037,7.531 5.083,7.300 5.147,7.073 5.229,6.852 5.327,6.639 5.443,6.433 5.573,6.237 5.719,6.052 5.879,5.879 6.052,5.719 6.237,5.573 6.433,5.443 6.639,5.327 6.852,5.229 7.073,5.147 7.300,5.083 7.531,5.037 7.765,5.010 8.001,5.000" style="fill:none;stroke-width:0.050000mm;stroke:black"/>
<polygon points="277.226,48.626 277.226,62.626 291.226,62.626 291.226,48.626" style="fill:none;stroke-width:0.050000mm;stroke:black"/>
<polygon points="258.176,48.626 258.176,62.626 272.176,62.626 272.176,48.626" style="fill:none;stroke-width:0.050000mm;stroke:black"/>
<polygon points="239.126,48.626 239.126,62.626 253.126,62.626 253.126,48.626" style="fill:none;stroke-width:0.050000mm;stroke:black"/>
<polygon points="220.076,48.626 220.076,62.626 234.076,62.626 234.076,48.626" style="fill:none;stroke-width:0.050000mm;stroke:black"/>
<polygon points="201.026,48.626 201.026,62.626 215.026,62.626 215.026,48.626" style="fill:none;stroke-width:0.050000mm;stroke:black"/>
<polygon points="181.976,48.626 181.976,62.626 195.976,62.626 195.976,48.626" style="fill:none;stroke-width:0.050000mm;stroke:black"/>
<polygon points="162.925,48.626 162.925,62.626 176.925,62.626 176.925,48.626" style="fill:none;stroke-width:0.050000mm;stroke:black"/>
<polygon points="124.825,48.626 124.825,62.626 138.826,62.626 138.826,48.626" style="fill:none;stroke-width:0.050000mm;stroke:black"/>
<polygon points="105.775,48.626 105.775,62.626 119.775,62.626 119.775,48.626" style="fill:none;stroke-width:0.050000mm;stroke:black"/>
<polygon points="86.726,48.626 86.726,62.626 100.726,62.626 100.726,48.626" style="fill:none;stroke-width:0.050000mm;stroke:black"/>
<polygon points="67.676,48.626 67.676,62.626 81.676,62.626 81.676,48.626" style="fill:none;stroke-width:0.050000mm;stroke:black"/>
<polygon points="48.626,48.626 48.626,62.626 62.626,62.626 62.626,48.626" style="fill:none;stroke-width:0.050000mm;stroke:black"/>
<polygon points="29.576,48.626 29.576,62.626 43.576,62.626 43.576,48.626" style="fill:none;stroke-width:0.050000mm;stroke:black"/>
<polygon points="10.525,48.626 10.525,62.626 24.526,62.626 24.526,48.626" style="fill:none;stroke-width:0.050000mm;stroke:black"/>
<polygon points="277.226,29.576 277.226,43.576 291.226,43.576 291.226,29.576" style="fill:none;stroke-width:0.050000mm;stroke:black"/>
<polygon points="258.176,29.576 258.176,43.576 272.176,43.576 272.176,29.576" style="fill:none;stroke-width:0.050000mm;stroke:black"/>
<polygon points="239.126,29.576 239.126,43.576 253.126,43.576 253.126,29.576" style="fill:none;stroke-width:0.050000mm;stroke:black"/>
<polygon points="220.076,29.576 220.076,43.576 234.076,43.576 234.076,29.576" style="fill:none;stroke-width:0.050000mm;stroke:black"/>
<polygon points="201.026,29.576 201.026,43.576 215.026,43.576 215.026,29.576" style="fill:none;stroke-width:0.050000mm;stroke:black"/>
<polygon points="181.976,29.576 181.976,43.576 195.976,43.576 195.976,29.576" style="fill:none;stroke-width:0.050000mm;stroke:black"/>
<polygon points="105.775,29.576 105.775,43.576 119.775,43.576 119.775,29.576" style="fill:none;stroke-width:0.050000mm;stroke:black"/>
<polygon points="86.726,29.576 86.726,43.576 100.726,43.576 100.726,29.576" style="fill:none;stroke-width:0.050000mm;stroke:black"/>
<polygon points="67.676,29.576 67.676,43.576 81.676,43.576 81.676,29.576" style="fill:none;stroke-width:0.050000mm;stroke:black"/>
<polygon points="48.626,29.576 48.626,43.576 62.626,43.576 62.626,29.576" style="fill:none;stroke-width:0.050000mm;stroke:black"/>
<polygon points="29.576,29.576 29.576,43.576 43.576,43.576 43.576,29.576" style="fill:none;stroke-width:0.050000mm;stroke:black"/>
<polygon points="10.525,29.576 10.525,43.576 24.526,43.576 24.526,29.576" style="fill:none;stroke-width:0.050000mm;stroke:black"/>
<polygon points="277.226,10.525 277.226,24.526 291.226,24.526 291.226,10.525" style="fill:none;stroke-width:0.050000mm;stroke:black"/>
<polygon points="258.176,10.525 258.176,24.526 272.176,24.526 272.176,10.525" style="fill:none;stroke-width:0.050000mm;stroke:black"/>
<polygon points="239.126,10.525 239.126,24.526 253.126,24.526 253.126,10.525" style="fill:none;stroke-width:0.050000mm;stroke:black"/>
<polygon points="220.076,10.525 220.076,24.526 234.076,24.526 234.076,10.525" style="fill:none;stroke-width:0.050000mm;stroke:black"/>
<polygon points="201.026,10.525 201.026,24.526 215.026,24.526 215.026,10.525" style="fill:none;stroke-width:0.050000mm;stroke:black"/>
<polygon points="181.976,10.525 181.976,24.526 195.976,24.526 195.976,10.525" style="fill:none;stroke-width:0.050000mm;stroke:black"/>
<polygon points="105.775,10.525 105.775,24.526 119.775,24.526 119.775,10.525" style="fill:none;stroke-width:0.050000mm;stroke:black"/>
<polygon points="86.726,10.525 86.726,24.526 100.726,24.526 100.726,10.525" style="fill:none;stroke-width:0.050000mm;stroke:black"/>
<polygon points="67.676,10.525 67.676,24.526 81.676,24.526 81.676,10.525" style="fill:none;stroke-width:0.050000mm;stroke:black"/>
<polygon points="48.626,10.525 48.626,24.526 62.626,24.526 62.626,10.525" style="fill:none;stroke-width:0.050000mm;stroke:black"/>
<polygon points="29.576,10.525 29.576,24.526 43.576,24.526 43.576,10.525" style="fill:none;stroke-width:0.050000mm;stroke:black"/>
<polygon points="10.525,10.525 10.525,24.526 24.526,24.526 24.526,10.525" style="fill:none;stroke-width:0.050000mm;stroke:black"/>
</svg>
