  0
SECTION
  2
HEADER
  9
$ACADVER
  1
AC1009
  9
$EXTMIN
 10
0.0
 20
0.0
 30
0.0
  9
$EXTMAX
 10
1000.0
 20
1000.0
 30
0.0
  9
$FILLMODE
 70
 0
  9
$SPLFRAME
 70
 1
  0
ENDSEC
  0
SECTION
  2
TABLES
  0
TABLE
  2
LAYER
 70
1
  0
LAYER
  2
0
 70
     0
 62
     7
  6
CONTINUOUS
  0
ENDTAB
  0
ENDSEC
  0
SECTION
  2
ENTITIES
  0
LINE
  8
0
 62
     0
 10
288.846
 20
66.5797
 30
0.0
 11
289.082
 21
66.5702
 31
0.0
  0
LINE
  8
0
 62
     0
 10
289.082
 20
66.5702
 30
0.0
 11
289.315
 21
66.5441
 31
0.0
  0
LINE
  8
0
 62
     0
 10
289.315
 20
66.5441
 30
0.0
 11
289.547
 21
66.4972
 31
0.0
  0
LINE
  8
0
 62
     0
 10
289.547
 20
66.4972
 30
0.0
 11
289.774
 21
66.4337
 31
0.0
  0
LINE
  8
0
 62
     0
 10
289.774
 20
66.4337
 30
0.0
 11
289.994
 21
66.3512
 31
0.0
  0
LINE
  8
0
 62
     0
 10
289.994
 20
66.3512
 30
0.0
 11
290.208
 21
66.2534
 31
0.0
  0
LINE
  8
0
 62
     0
 10
290.208
 20
66.2534
 30
0.0
 11
290.413
 21
66.1377
 31
0.0
  0
LINE
  8
0
 62
     0
 10
290.413
 20
66.1377
 30
0.0
 11
290.609
 21
66.0079
 31
0.0
  0
LINE
  8
0
 62
     0
 10
290.609
 20
66.0079
 30
0.0
 11
290.795
 21
65.8619
 31
0.0
  0
LINE
  8
0
 62
     0
 10
290.795
 20
65.8619
 30
0.0
 11
290.967
 21
65.702
 31
0.0
  0
LINE
  8
0
 62
     0
 10
290.967
 20
65.702
 30
0.0
 11
291.127
 21
65.5285
 31
0.0
  0
LINE
  8
0
 62
     0
 10
291.127
 20
65.5285
 30
0.0
 11
291.273
 21
65.344
 31
0.0
  0
LINE
  8
0
 62
     0
 10
291.273
 20
65.344
 30
0.0
 11
291.404
 21
65.1482
 31
0.0
  0
LINE
  8
0
 62
     0
 10
291.404
 20
65.1482
 30
0.0
 11
291.52
 21
64.9414
 31
0.0
  0
LINE
  8
0
 62
     0
 10
291.52
 20
64.9414
 30
0.0
 11
291.618
 21
64.7277
 31
0.0
  0
LINE
  8
0
 62
     0
 10
291.618
 20
64.7277
 30
0.0
 11
291.699
 21
64.5072
 31
0.0
  0
LINE
  8
0
 62
     0
 10
291.699
 20
64.5072
 30
0.0
 11
291.764
 21
64.28
 31
0.0
  0
LINE
  8
0
 62
     0
 10
291.764
 20
64.28
 30
0.0
 11
291.809
 21
64.05
 31
0.0
  0
LINE
  8
0
 62
     0
 10
291.809
 20
64.05
 30
0.0
 11
291.837
 21
63.8157
 31
0.0
  0
LINE
  8
0
 62
     0
 10
291.837
 20
63.8157
 30
0.0
 11
291.846
 21
63.5801
 31
0.0
  0
LINE
  8
0
 62
     0
 10
291.846
 20
63.5801
 30
0.0
 11
291.846
 21
3.42856
 31
0.0
  0
LINE
  8
0
 62
     0
 10
291.846
 20
3.42856
 30
0.0
 11
291.837
 21
3.19291
 31
0.0
  0
LINE
  8
0
 62
     0
 10
291.837
 20
3.19291
 30
0.0
 11
291.809
 21
2.96003
 31
0.0
  0
LINE
  8
0
 62
     0
 10
291.809
 20
2.96003
 30
0.0
 11
291.764
 21
2.72852
 31
0.0
  0
LINE
  8
0
 62
     0
 10
291.764
 20
2.72852
 30
0.0
 11
291.699
 21
2.50114
 31
0.0
  0
LINE
  8
0
 62
     0
 10
291.699
 20
2.50114
 30
0.0
 11
291.618
 21
2.28065
 31
0.0
  0
LINE
  8
0
 62
     0
 10
291.618
 20
2.28065
 30
0.0
 11
291.52
 21
2.06706
 31
0.0
  0
LINE
  8
0
 62
     0
 10
291.52
 20
2.06706
 30
0.0
 11
291.404
 21
1.86173
 31
0.0
  0
LINE
  8
0
 62
     0
 10
291.404
 20
1.86173
 30
0.0
 11
291.273
 21
1.66605
 31
0.0
  0
LINE
  8
0
 62
     0
 10
291.273
 20
1.66605
 30
0.0
 11
291.127
 21
1.48001
 31
0.0
  0
LINE
  8
0
 62
     0
 10
291.127
 20
1.48001
 30
0.0
 11
290.967
 21
1.30776
 31
0.0
  0
LINE
  8
0
 62
     0
 10
290.967
 20
1.30776
 30
0.0
 11
290.795
 21
1.14791
 31
0.0
  0
LINE
  8
0
 62
     0
 10
290.795
 20
1.14791
 30
0.0
 11
290.609
 21
1.00183
 31
0.0
  0
LINE
  8
0
 62
     0
 10
290.609
 20
1.00183
 30
0.0
 11
290.413
 21
0.87092
 31
0.0
  0
LINE
  8
0
 62
     0
 10
290.413
 20
0.87092
 30
0.0
 11
290.208
 21
0.755167
 31
0.0
  0
LINE
  8
0
 62
     0
 10
290.208
 20
0.755167
 30
0.0
 11
289.994
 21
0.657324
 31
0.0
  0
LINE
  8
0
 62
     0
 10
289.994
 20
0.657324
 30
0.0
 11
289.774
 21
0.576019
 31
0.0
  0
LINE
  8
0
 62
     0
 10
289.774
 20
0.576019
 30
0.0
 11
289.547
 21
0.511253
 31
0.0
  0
LINE
  8
0
 62
     0
 10
289.547
 20
0.511253
 30
0.0
 11
289.315
 21
0.465776
 31
0.0
  0
LINE
  8
0
 62
     0
 10
289.315
 20
0.465776
 30
0.0
 11
289.082
 21
0.438217
 31
0.0
  0
LINE
  8
0
 62
     0
 10
289.082
 20
0.438217
 30
0.0
 11
288.846
 21
0.428569
 31
0.0
  0
LINE
  8
0
 62
     0
 10
288.846
 20
0.428569
 30
0.0
 11
3.09507
 21
0.428569
 31
0.0
  0
LINE
  8
0
 62
     0
 10
3.09507
 20
0.428569
 30
0.0
 11
2.85943
 21
0.438217
 31
0.0
  0
LINE
  8
0
 62
     0
 10
2.85943
 20
0.438217
 30
0.0
 11
2.62516
 21
0.465776
 31
0.0
  0
LINE
  8
0
 62
     0
 10
2.62516
 20
0.465776
 30
0.0
 11
2.39503
 21
0.511253
 31
0.0
  0
LINE
  8
0
 62
     0
 10
2.39503
 20
0.511253
 30
0.0
 11
2.16765
 21
0.576019
 31
0.0
  0
LINE
  8
0
 62
     0
 10
2.16765
 20
0.576019
 30
0.0
 11
1.94717
 21
0.657324
 31
0.0
  0
LINE
  8
0
 62
     0
 10
1.94717
 20
0.657324
 30
0.0
 11
1.73357
 21
0.755167
 31
0.0
  0
LINE
  8
0
 62
     0
 10
1.73357
 20
0.755167
 30
0.0
 11
1.52687
 21
0.87092
 31
0.0
  0
LINE
  8
0
 62
     0
 10
1.52687
 20
0.87092
 30
0.0
 11
1.33119
 21
1.00183
 31
0.0
  0
LINE
  8
0
 62
     0
 10
1.33119
 20
1.00183
 30
0.0
 11
1.14653
 21
1.14791
 31
0.0
  0
LINE
  8
0
 62
     0
 10
1.14653
 20
1.14791
 30
0.0
 11
0.972894
 21
1.30776
 31
0.0
  0
LINE
  8
0
 62
     0
 10
0.972894
 20
1.30776
 30
0.0
 11
0.813043
 21
1.48001
 31
0.0
  0
LINE
  8
0
 62
     0
 10
0.813043
 20
1.48001
 30
0.0
 11
0.666972
 21
1.66605
 31
0.0
  0
LINE
  8
0
 62
     0
 10
0.666972
 20
1.66605
 30
0.0
 11
0.537436
 21
1.86173
 31
0.0
  0
LINE
  8
0
 62
     0
 10
0.537436
 20
1.86173
 30
0.0
 11
0.421679
 21
2.06706
 31
0.0
  0
LINE
  8
0
 62
     0
 10
0.421679
 20
2.06706
 30
0.0
 11
0.323839
 21
2.28065
 31
0.0
  0
LINE
  8
0
 62
     0
 10
0.323839
 20
2.28065
 30
0.0
 11
0.241157
 21
2.50114
 31
0.0
  0
LINE
  8
0
 62
     0
 10
0.241157
 20
2.50114
 30
0.0
 11
0.177767
 21
2.72852
 31
0.0
  0
LINE
  8
0
 62
     0
 10
0.177767
 20
2.72852
 30
0.0
 11
0.130914
 21
2.96003
 31
0.0
  0
LINE
  8
0
 62
     0
 10
0.130914
 20
2.96003
 30
0.0
 11
0.104731
 21
3.19291
 31
0.0
  0
LINE
  8
0
 62
     0
 10
0.104731
 20
3.19291
 30
0.0
 11
0.0950846
 21
3.42994
 31
0.0
  0
LINE
  8
0
 62
     0
 10
0.0950846
 20
3.42994
 30
0.0
 11
0.0950846
 21
63.5801
 31
0.0
  0
LINE
  8
0
 62
     0
 10
0.0950846
 20
63.5801
 30
0.0
 11
0.104731
 21
63.8157
 31
0.0
  0
LINE
  8
0
 62
     0
 10
0.104731
 20
63.8157
 30
0.0
 11
0.130914
 21
64.05
 31
0.0
  0
LINE
  8
0
 62
     0
 10
0.130914
 20
64.05
 30
0.0
 11
0.177767
 21
64.28
 31
0.0
  0
LINE
  8
0
 62
     0
 10
0.177767
 20
64.28
 30
0.0
 11
0.241157
 21
64.5072
 31
0.0
  0
LINE
  8
0
 62
     0
 10
0.241157
 20
64.5072
 30
0.0
 11
0.323839
 21
64.7277
 31
0.0
  0
LINE
  8
0
 62
     0
 10
0.323839
 20
64.7277
 30
0.0
 11
0.421679
 21
64.9414
 31
0.0
  0
LINE
  8
0
 62
     0
 10
0.421679
 20
64.9414
 30
0.0
 11
0.537436
 21
65.1482
 31
0.0
  0
LINE
  8
0
 62
     0
 10
0.537436
 20
65.1482
 30
0.0
 11
0.666972
 21
65.344
 31
0.0
  0
LINE
  8
0
 62
     0
 10
0.666972
 20
65.344
 30
0.0
 11
0.813043
 21
65.5285
 31
0.0
  0
LINE
  8
0
 62
     0
 10
0.813043
 20
65.5285
 30
0.0
 11
0.972894
 21
65.702
 31
0.0
  0
LINE
  8
0
 62
     0
 10
0.972894
 20
65.702
 30
0.0
 11
1.14653
 21
65.8619
 31
0.0
  0
LINE
  8
0
 62
     0
 10
1.14653
 20
65.8619
 30
0.0
 11
1.33119
 21
66.0079
 31
0.0
  0
LINE
  8
0
 62
     0
 10
1.33119
 20
66.0079
 30
0.0
 11
1.52687
 21
66.1377
 31
0.0
  0
LINE
  8
0
 62
     0
 10
1.52687
 20
66.1377
 30
0.0
 11
1.73357
 21
66.2534
 31
0.0
  0
LINE
  8
0
 62
     0
 10
1.73357
 20
66.2534
 30
0.0
 11
1.94717
 21
66.3512
 31
0.0
  0
LINE
  8
0
 62
     0
 10
1.94717
 20
66.3512
 30
0.0
 11
2.16765
 21
66.4337
 31
0.0
  0
LINE
  8
0
 62
     0
 10
2.16765
 20
66.4337
 30
0.0
 11
2.39503
 21
66.4972
 31
0.0
  0
LINE
  8
0
 62
     0
 10
2.39503
 20
66.4972
 30
0.0
 11
2.62516
 21
66.5441
 31
0.0
  0
LINE
  8
0
 62
     0
 10
2.62516
 20
66.5441
 30
0.0
 11
2.85943
 21
66.5702
 31
0.0
  0
LINE
  8
0
 62
     0
 10
2.85943
 20
66.5702
 30
0.0
 11
3.09507
 21
66.5797
 31
0.0
  0
LINE
  8
0
 62
     0
 10
3.09507
 20
66.5797
 30
0.0
 11
288.846
 21
66.5797
 31
0.0
  0
LINE
  8
0
 62
     0
 10
272.321
 20
22.954
 30
0.0
 11
286.32
 21
22.954
 31
0.0
  0
LINE
  8
0
 62
     0
 10
286.32
 20
22.954
 30
0.0
 11
286.32
 21
8.95449
 31
0.0
  0
LINE
  8
0
 62
     0
 10
286.32
 20
8.95449
 30
0.0
 11
272.321
 21
8.95449
 31
0.0
  0
LINE
  8
0
 62
     0
 10
272.321
 20
8.95449
 30
0.0
 11
272.321
 21
22.954
 31
0.0
  0
LINE
  8
0
 62
     0
 10
253.271
 20
22.954
 30
0.0
 11
267.27
 21
22.954
 31
0.0
  0
LINE
  8
0
 62
     0
 10
267.27
 20
22.954
 30
0.0
 11
267.27
 21
8.95449
 31
0.0
  0
LINE
  8
0
 62
     0
 10
267.27
 20
8.95449
 30
0.0
 11
253.271
 21
8.95449
 31
0.0
  0
LINE
  8
0
 62
     0
 10
253.271
 20
8.95449
 30
0.0
 11
253.271
 21
22.954
 31
0.0
  0
LINE
  8
0
 62
     0
 10
234.221
 20
22.954
 30
0.0
 11
248.22
 21
22.954
 31
0.0
  0
LINE
  8
0
 62
     0
 10
248.22
 20
22.954
 30
0.0
 11
248.22
 21
8.95449
 31
0.0
  0
LINE
  8
0
 62
     0
 10
248.22
 20
8.95449
 30
0.0
 11
234.221
 21
8.95449
 31
0.0
  0
LINE
  8
0
 62
     0
 10
234.221
 20
8.95449
 30
0.0
 11
234.221
 21
22.954
 31
0.0
  0
LINE
  8
0
 62
     0
 10
215.171
 20
22.954
 30
0.0
 11
229.17
 21
22.954
 31
0.0
  0
LINE
  8
0
 62
     0
 10
229.17
 20
22.954
 30
0.0
 11
229.17
 21
8.95449
 31
0.0
  0
LINE
  8
0
 62
     0
 10
229.17
 20
8.95449
 30
0.0
 11
215.171
 21
8.95449
 31
0.0
  0
LINE
  8
0
 62
     0
 10
215.171
 20
8.95449
 30
0.0
 11
215.171
 21
22.954
 31
0.0
  0
LINE
  8
0
 62
     0
 10
196.121
 20
22.954
 30
0.0
 11
210.12
 21
22.954
 31
0.0
  0
LINE
  8
0
 62
     0
 10
210.12
 20
22.954
 30
0.0
 11
210.12
 21
8.95449
 31
0.0
  0
LINE
  8
0
 62
     0
 10
210.12
 20
8.95449
 30
0.0
 11
196.121
 21
8.95449
 31
0.0
  0
LINE
  8
0
 62
     0
 10
196.121
 20
8.95449
 30
0.0
 11
196.121
 21
22.954
 31
0.0
  0
LINE
  8
0
 62
     0
 10
177.071
 20
22.954
 30
0.0
 11
191.07
 21
22.954
 31
0.0
  0
LINE
  8
0
 62
     0
 10
191.07
 20
22.954
 30
0.0
 11
191.07
 21
8.95449
 31
0.0
  0
LINE
  8
0
 62
     0
 10
191.07
 20
8.95449
 30
0.0
 11
177.071
 21
8.95449
 31
0.0
  0
LINE
  8
0
 62
     0
 10
177.071
 20
8.95449
 30
0.0
 11
177.071
 21
22.954
 31
0.0
  0
LINE
  8
0
 62
     0
 10
158.02
 20
22.954
 30
0.0
 11
172.019
 21
22.954
 31
0.0
  0
LINE
  8
0
 62
     0
 10
172.019
 20
22.954
 30
0.0
 11
172.019
 21
8.95449
 31
0.0
  0
LINE
  8
0
 62
     0
 10
172.019
 20
8.95449
 30
0.0
 11
158.02
 21
8.95449
 31
0.0
  0
LINE
  8
0
 62
     0
 10
158.02
 20
8.95449
 30
0.0
 11
158.02
 21
22.954
 31
0.0
  0
LINE
  8
0
 62
     0
 10
119.92
 20
22.954
 30
0.0
 11
133.92
 21
22.954
 31
0.0
  0
LINE
  8
0
 62
     0
 10
133.92
 20
22.954
 30
0.0
 11
133.92
 21
8.95449
 31
0.0
  0
LINE
  8
0
 62
     0
 10
133.92
 20
8.95449
 30
0.0
 11
119.92
 21
8.95449
 31
0.0
  0
LINE
  8
0
 62
     0
 10
119.92
 20
8.95449
 30
0.0
 11
119.92
 21
22.954
 31
0.0
  0
LINE
  8
0
 62
     0
 10
100.87
 20
22.954
 30
0.0
 11
114.869
 21
22.954
 31
0.0
  0
LINE
  8
0
 62
     0
 10
114.869
 20
22.954
 30
0.0
 11
114.869
 21
8.95449
 31
0.0
  0
LINE
  8
0
 62
     0
 10
114.869
 20
8.95449
 30
0.0
 11
100.87
 21
8.95449
 31
0.0
  0
LINE
  8
0
 62
     0
 10
100.87
 20
8.95449
 30
0.0
 11
100.87
 21
22.954
 31
0.0
  0
LINE
  8
0
 62
     0
 10
81.8212
 20
22.954
 30
0.0
 11
95.8204
 21
22.954
 31
0.0
  0
LINE
  8
0
 62
     0
 10
95.8204
 20
22.954
 30
0.0
 11
95.8204
 21
8.95449
 31
0.0
  0
LINE
  8
0
 62
     0
 10
95.8204
 20
8.95449
 30
0.0
 11
81.8212
 21
8.95449
 31
0.0
  0
LINE
  8
0
 62
     0
 10
81.8212
 20
8.95449
 30
0.0
 11
81.8212
 21
22.954
 31
0.0
  0
LINE
  8
0
 62
     0
 10
62.7712
 20
22.954
 30
0.0
 11
76.7704
 21
22.954
 31
0.0
  0
LINE
  8
0
 62
     0
 10
76.7704
 20
22.954
 30
0.0
 11
76.7704
 21
8.95449
 31
0.0
  0
LINE
  8
0
 62
     0
 10
76.7704
 20
8.95449
 30
0.0
 11
62.7712
 21
8.95449
 31
0.0
  0
LINE
  8
0
 62
     0
 10
62.7712
 20
8.95449
 30
0.0
 11
62.7712
 21
22.954
 31
0.0
  0
LINE
  8
0
 62
     0
 10
43.7212
 20
22.954
 30
0.0
 11
57.7204
 21
22.954
 31
0.0
  0
LINE
  8
0
 62
     0
 10
57.7204
 20
22.954
 30
0.0
 11
57.7204
 21
8.95449
 31
0.0
  0
LINE
  8
0
 62
     0
 10
57.7204
 20
8.95449
 30
0.0
 11
43.7212
 21
8.95449
 31
0.0
  0
LINE
  8
0
 62
     0
 10
43.7212
 20
8.95449
 30
0.0
 11
43.7212
 21
22.954
 31
0.0
  0
LINE
  8
0
 62
     0
 10
24.671
 20
22.954
 30
0.0
 11
38.6704
 21
22.954
 31
0.0
  0
LINE
  8
0
 62
     0
 10
38.6704
 20
22.954
 30
0.0
 11
38.6704
 21
8.95449
 31
0.0
  0
LINE
  8
0
 62
     0
 10
38.6704
 20
8.95449
 30
0.0
 11
24.671
 21
8.95449
 31
0.0
  0
LINE
  8
0
 62
     0
 10
24.671
 20
8.95449
 30
0.0
 11
24.671
 21
22.954
 31
0.0
  0
LINE
  8
0
 62
     0
 10
5.61964
 20
22.954
 30
0.0
 11
19.6205
 21
22.954
 31
0.0
  0
LINE
  8
0
 62
     0
 10
19.6205
 20
22.954
 30
0.0
 11
19.6205
 21
8.95449
 31
0.0
  0
LINE
  8
0
 62
     0
 10
19.6205
 20
8.95449
 30
0.0
 11
5.61964
 21
8.95449
 31
0.0
  0
LINE
  8
0
 62
     0
 10
5.61964
 20
8.95449
 30
0.0
 11
5.61964
 21
22.954
 31
0.0
  0
LINE
  8
0
 62
     0
 10
272.321
 20
42.0038
 30
0.0
 11
286.32
 21
42.0038
 31
0.0
  0
LINE
  8
0
 62
     0
 10
286.32
 20
42.0038
 30
0.0
 11
286.32
 21
28.0045
 31
0.0
  0
LINE
  8
0
 62
     0
 10
286.32
 20
28.0045
 30
0.0
 11
272.321
 21
28.0045
 31
0.0
  0
LINE
  8
0
 62
     0
 10
272.321
 20
28.0045
 30
0.0
 11
272.321
 21
42.0038
 31
0.0
  0
LINE
  8
0
 62
     0
 10
253.271
 20
42.0038
 30
0.0
 11
267.27
 21
42.0038
 31
0.0
  0
LINE
  8
0
 62
     0
 10
267.27
 20
42.0038
 30
0.0
 11
267.27
 21
28.0045
 31
0.0
  0
LINE
  8
0
 62
     0
 10
267.27
 20
28.0045
 30
0.0
 11
253.271
 21
28.0045
 31
0.0
  0
LINE
  8
0
 62
     0
 10
253.271
 20
28.0045
 30
0.0
 11
253.271
 21
42.0038
 31
0.0
  0
LINE
  8
0
 62
     0
 10
234.221
 20
42.0038
 30
0.0
 11
248.22
 21
42.0038
 31
0.0
  0
LINE
  8
0
 62
     0
 10
248.22
 20
42.0038
 30
0.0
 11
248.22
 21
28.0045
 31
0.0
  0
LINE
  8
0
 62
     0
 10
248.22
 20
28.0045
 30
0.0
 11
234.221
 21
28.0045
 31
0.0
  0
LINE
  8
0
 62
     0
 10
234.221
 20
28.0045
 30
0.0
 11
234.221
 21
42.0038
 31
0.0
  0
LINE
  8
0
 62
     0
 10
215.171
 20
42.0038
 30
0.0
 11
229.17
 21
42.0038
 31
0.0
  0
LINE
  8
0
 62
     0
 10
229.17
 20
42.0038
 30
0.0
 11
229.17
 21
28.0045
 31
0.0
  0
LINE
  8
0
 62
     0
 10
229.17
 20
28.0045
 30
0.0
 11
215.171
 21
28.0045
 31
0.0
  0
LINE
  8
0
 62
     0
 10
215.171
 20
28.0045
 30
0.0
 11
215.171
 21
42.0038
 31
0.0
  0
LINE
  8
0
 62
     0
 10
196.121
 20
42.0038
 30
0.0
 11
210.12
 21
42.0038
 31
0.0
  0
LINE
  8
0
 62
     0
 10
210.12
 20
42.0038
 30
0.0
 11
210.12
 21
28.0045
 31
0.0
  0
LINE
  8
0
 62
     0
 10
210.12
 20
28.0045
 30
0.0
 11
196.121
 21
28.0045
 31
0.0
  0
LINE
  8
0
 62
     0
 10
196.121
 20
28.0045
 30
0.0
 11
196.121
 21
42.0038
 31
0.0
  0
LINE
  8
0
 62
     0
 10
177.071
 20
42.0038
 30
0.0
 11
191.07
 21
42.0038
 31
0.0
  0
LINE
  8
0
 62
     0
 10
191.07
 20
42.0038
 30
0.0
 11
191.07
 21
28.0045
 31
0.0
  0
LINE
  8
0
 62
     0
 10
191.07
 20
28.0045
 30
0.0
 11
177.071
 21
28.0045
 31
0.0
  0
LINE
  8
0
 62
     0
 10
177.071
 20
28.0045
 30
0.0
 11
177.071
 21
42.0038
 31
0.0
  0
LINE
  8
0
 62
     0
 10
100.87
 20
42.0038
 30
0.0
 11
114.869
 21
42.0038
 31
0.0
  0
LINE
  8
0
 62
     0
 10
114.869
 20
42.0038
 30
0.0
 11
114.869
 21
28.0045
 31
0.0
  0
LINE
  8
0
 62
     0
 10
114.869
 20
28.0045
 30
0.0
 11
100.87
 21
28.0045
 31
0.0
  0
LINE
  8
0
 62
     0
 10
100.87
 20
28.0045
 30
0.0
 11
100.87
 21
42.0038
 31
0.0
  0
LINE
  8
0
 62
     0
 10
81.8212
 20
42.0038
 30
0.0
 11
95.8204
 21
42.0038
 31
0.0
  0
LINE
  8
0
 62
     0
 10
95.8204
 20
42.0038
 30
0.0
 11
95.8204
 21
28.0045
 31
0.0
  0
LINE
  8
0
 62
     0
 10
95.8204
 20
28.0045
 30
0.0
 11
81.8212
 21
28.0045
 31
0.0
  0
LINE
  8
0
 62
     0
 10
81.8212
 20
28.0045
 30
0.0
 11
81.8212
 21
42.0038
 31
0.0
  0
LINE
  8
0
 62
     0
 10
62.7712
 20
42.0038
 30
0.0
 11
76.7704
 21
42.0038
 31
0.0
  0
LINE
  8
0
 62
     0
 10
76.7704
 20
42.0038
 30
0.0
 11
76.7704
 21
28.0045
 31
0.0
  0
LINE
  8
0
 62
     0
 10
76.7704
 20
28.0045
 30
0.0
 11
62.7712
 21
28.0045
 31
0.0
  0
LINE
  8
0
 62
     0
 10
62.7712
 20
28.0045
 30
0.0
 11
62.7712
 21
42.0038
 31
0.0
  0
LINE
  8
0
 62
     0
 10
43.7212
 20
42.0038
 30
0.0
 11
57.7204
 21
42.0038
 31
0.0
  0
LINE
  8
0
 62
     0
 10
57.7204
 20
42.0038
 30
0.0
 11
57.7204
 21
28.0045
 31
0.0
  0
LINE
  8
0
 62
     0
 10
57.7204
 20
28.0045
 30
0.0
 11
43.7212
 21
28.0045
 31
0.0
  0
LINE
  8
0
 62
     0
 10
43.7212
 20
28.0045
 30
0.0
 11
43.7212
 21
42.0038
 31
0.0
  0
LINE
  8
0
 62
     0
 10
24.671
 20
42.0038
 30
0.0
 11
38.6704
 21
42.0038
 31
0.0
  0
LINE
  8
0
 62
     0
 10
38.6704
 20
42.0038
 30
0.0
 11
38.6704
 21
28.0045
 31
0.0
  0
LINE
  8
0
 62
     0
 10
38.6704
 20
28.0045
 30
0.0
 11
24.671
 21
28.0045
 31
0.0
  0
LINE
  8
0
 62
     0
 10
24.671
 20
28.0045
 30
0.0
 11
24.671
 21
42.0038
 31
0.0
  0
LINE
  8
0
 62
     0
 10
5.61964
 20
42.0038
 30
0.0
 11
19.6205
 21
42.0038
 31
0.0
  0
LINE
  8
0
 62
     0
 10
19.6205
 20
42.0038
 30
0.0
 11
19.6205
 21
28.0045
 31
0.0
  0
LINE
  8
0
 62
     0
 10
19.6205
 20
28.0045
 30
0.0
 11
5.61964
 21
28.0045
 31
0.0
  0
LINE
  8
0
 62
     0
 10
5.61964
 20
28.0045
 30
0.0
 11
5.61964
 21
42.0038
 31
0.0
  0
LINE
  8
0
 62
     0
 10
272.321
 20
61.0553
 30
0.0
 11
286.32
 21
61.0553
 31
0.0
  0
LINE
  8
0
 62
     0
 10
286.32
 20
61.0553
 30
0.0
 11
286.32
 21
47.0546
 31
0.0
  0
LINE
  8
0
 62
     0
 10
286.32
 20
47.0546
 30
0.0
 11
272.321
 21
47.0546
 31
0.0
  0
LINE
  8
0
 62
     0
 10
272.321
 20
47.0546
 30
0.0
 11
272.321
 21
61.0553
 31
0.0
  0
LINE
  8
0
 62
     0
 10
253.271
 20
61.0553
 30
0.0
 11
267.27
 21
61.0553
 31
0.0
  0
LINE
  8
0
 62
     0
 10
267.27
 20
61.0553
 30
0.0
 11
267.27
 21
47.0546
 31
0.0
  0
LINE
  8
0
 62
     0
 10
267.27
 20
47.0546
 30
0.0
 11
253.271
 21
47.0546
 31
0.0
  0
LINE
  8
0
 62
     0
 10
253.271
 20
47.0546
 30
0.0
 11
253.271
 21
61.0553
 31
0.0
  0
LINE
  8
0
 62
     0
 10
234.221
 20
61.0553
 30
0.0
 11
248.22
 21
61.0553
 31
0.0
  0
LINE
  8
0
 62
     0
 10
248.22
 20
61.0553
 30
0.0
 11
248.22
 21
47.0546
 31
0.0
  0
LINE
  8
0
 62
     0
 10
248.22
 20
47.0546
 30
0.0
 11
234.221
 21
47.0546
 31
0.0
  0
LINE
  8
0
 62
     0
 10
234.221
 20
47.0546
 30
0.0
 11
234.221
 21
61.0553
 31
0.0
  0
LINE
  8
0
 62
     0
 10
215.171
 20
61.0553
 30
0.0
 11
229.17
 21
61.0553
 31
0.0
  0
LINE
  8
0
 62
     0
 10
229.17
 20
61.0553
 30
0.0
 11
229.17
 21
47.0546
 31
0.0
  0
LINE
  8
0
 62
     0
 10
229.17
 20
47.0546
 30
0.0
 11
215.171
 21
47.0546
 31
0.0
  0
LINE
  8
0
 62
     0
 10
215.171
 20
47.0546
 30
0.0
 11
215.171
 21
61.0553
 31
0.0
  0
LINE
  8
0
 62
     0
 10
196.121
 20
61.0553
 30
0.0
 11
210.12
 21
61.0553
 31
0.0
  0
LINE
  8
0
 62
     0
 10
210.12
 20
61.0553
 30
0.0
 11
210.12
 21
47.0546
 31
0.0
  0
LINE
  8
0
 62
     0
 10
210.12
 20
47.0546
 30
0.0
 11
196.121
 21
47.0546
 31
0.0
  0
LINE
  8
0
 62
     0
 10
196.121
 20
47.0546
 30
0.0
 11
196.121
 21
61.0553
 31
0.0
  0
LINE
  8
0
 62
     0
 10
177.071
 20
61.0553
 30
0.0
 11
191.07
 21
61.0553
 31
0.0
  0
LINE
  8
0
 62
     0
 10
191.07
 20
61.0553
 30
0.0
 11
191.07
 21
47.0546
 31
0.0
  0
LINE
  8
0
 62
     0
 10
191.07
 20
47.0546
 30
0.0
 11
177.071
 21
47.0546
 31
0.0
  0
LINE
  8
0
 62
     0
 10
177.071
 20
47.0546
 30
0.0
 11
177.071
 21
61.0553
 31
0.0
  0
LINE
  8
0
 62
     0
 10
100.87
 20
61.0553
 30
0.0
 11
114.869
 21
61.0553
 31
0.0
  0
LINE
  8
0
 62
     0
 10
114.869
 20
61.0553
 30
0.0
 11
114.869
 21
47.0546
 31
0.0
  0
LINE
  8
0
 62
     0
 10
114.869
 20
47.0546
 30
0.0
 11
100.87
 21
47.0546
 31
0.0
  0
LINE
  8
0
 62
     0
 10
100.87
 20
47.0546
 30
0.0
 11
100.87
 21
61.0553
 31
0.0
  0
LINE
  8
0
 62
     0
 10
81.8212
 20
61.0553
 30
0.0
 11
95.8204
 21
61.0553
 31
0.0
  0
LINE
  8
0
 62
     0
 10
95.8204
 20
61.0553
 30
0.0
 11
95.8204
 21
47.0546
 31
0.0
  0
LINE
  8
0
 62
     0
 10
95.8204
 20
47.0546
 30
0.0
 11
81.8212
 21
47.0546
 31
0.0
  0
LINE
  8
0
 62
     0
 10
81.8212
 20
47.0546
 30
0.0
 11
81.8212
 21
61.0553
 31
0.0
  0
LINE
  8
0
 62
     0
 10
62.7712
 20
61.0553
 30
0.0
 11
76.7704
 21
61.0553
 31
0.0
  0
LINE
  8
0
 62
     0
 10
76.7704
 20
61.0553
 30
0.0
 11
76.7704
 21
47.0546
 31
0.0
  0
LINE
  8
0
 62
     0
 10
76.7704
 20
47.0546
 30
0.0
 11
62.7712
 21
47.0546
 31
0.0
  0
LINE
  8
0
 62
     0
 10
62.7712
 20
47.0546
 30
0.0
 11
62.7712
 21
61.0553
 31
0.0
  0
LINE
  8
0
 62
     0
 10
43.7212
 20
61.0553
 30
0.0
 11
57.7204
 21
61.0553
 31
0.0
  0
LINE
  8
0
 62
     0
 10
57.7204
 20
61.0553
 30
0.0
 11
57.7204
 21
47.0546
 31
0.0
  0
LINE
  8
0
 62
     0
 10
57.7204
 20
47.0546
 30
0.0
 11
43.7212
 21
47.0546
 31
0.0
  0
LINE
  8
0
 62
     0
 10
43.7212
 20
47.0546
 30
0.0
 11
43.7212
 21
61.0553
 31
0.0
  0
LINE
  8
0
 62
     0
 10
24.671
 20
61.0553
 30
0.0
 11
38.6704
 21
61.0553
 31
0.0
  0
LINE
  8
0
 62
     0
 10
38.6704
 20
61.0553
 30
0.0
 11
38.6704
 21
47.0546
 31
0.0
  0
LINE
  8
0
 62
     0
 10
38.6704
 20
47.0546
 30
0.0
 11
24.671
 21
47.0546
 31
0.0
  0
LINE
  8
0
 62
     0
 10
24.671
 20
47.0546
 30
0.0
 11
24.671
 21
61.0553
 31
0.0
  0
LINE
  8
0
 62
     0
 10
5.61964
 20
61.0553
 30
0.0
 11
19.6205
 21
61.0553
 31
0.0
  0
LINE
  8
0
 62
     0
 10
19.6205
 20
61.0553
 30
0.0
 11
19.6205
 21
47.0546
 31
0.0
  0
LINE
  8
0
 62
     0
 10
19.6205
 20
47.0546
 30
0.0
 11
5.61964
 21
47.0546
 31
0.0
  0
LINE
  8
0
 62
     0
 10
5.61964
 20
47.0546
 30
0.0
 11
5.61964
 21
61.0553
 31
0.0
  0
ENDSEC
  0
EOF
