G04 #@! TF.GenerationSoftware,KiCad,Pcbnew,(5.1.7)-1*
G04 #@! TF.CreationDate,2021-01-09T22:46:43+09:00*
G04 #@! TF.ProjectId,barracuda_top,62617272-6163-4756-9461-5f746f702e6b,rev?*
G04 #@! TF.SameCoordinates,Original*
G04 #@! TF.FileFunction,Profile,NP*
%FSLAX46Y46*%
G04 Gerber Fmt 4.6, Leading zero omitted, Abs format (unit mm)*
G04 Created by KiCad (PCBNEW (5.1.7)-1) date 2021-01-09 22:46:43*
%MOMM*%
%LPD*%
G01*
G04 APERTURE LIST*
G04 #@! TA.AperFunction,Profile*
%ADD10C,0.200000*%
G04 #@! TD*
G04 #@! TA.AperFunction,Profile*
%ADD11C,0.050000*%
G04 #@! TD*
G04 APERTURE END LIST*
D10*
X119189500Y-76039000D02*
X119189500Y-62039600D01*
X247488800Y-42989500D02*
X247488800Y-56988800D01*
X233489800Y-42989500D02*
X247488800Y-42989500D01*
X252539800Y-56988800D02*
X252539800Y-42989500D01*
X290639800Y-42989500D02*
X304638800Y-42989500D01*
X42989450Y-76039000D02*
X42989450Y-62039600D01*
X95088800Y-76039000D02*
X81089500Y-76039000D01*
X100139500Y-76039000D02*
X100139500Y-62039600D01*
X233489800Y-76039000D02*
X233489800Y-62039600D01*
X233489800Y-62039600D02*
X247488800Y-62039600D01*
X266538800Y-62039600D02*
X266538800Y-76039000D01*
X81089500Y-76039000D02*
X81089500Y-62039600D01*
X95088800Y-62039600D02*
X95088800Y-76039000D01*
X214439800Y-62039600D02*
X228438800Y-62039600D01*
X133188800Y-62039600D02*
X133188800Y-76039000D01*
X119189500Y-62039600D02*
X133188800Y-62039600D01*
X247488800Y-76039000D02*
X233489800Y-76039000D01*
X247488800Y-56988800D02*
X233489800Y-56988800D01*
X266538800Y-56988800D02*
X252539800Y-56988800D01*
X271589800Y-56988800D02*
X271589800Y-42989500D01*
X252539800Y-62039600D02*
X266538800Y-62039600D01*
X252539800Y-42989500D02*
X266538800Y-42989500D01*
X285588800Y-42989500D02*
X285588800Y-56988800D01*
X62039500Y-76039000D02*
X62039500Y-62039600D01*
X114138800Y-76039000D02*
X100139500Y-76039000D01*
X76038800Y-62039600D02*
X76038800Y-76039000D01*
X81089500Y-62039600D02*
X95088800Y-62039600D01*
X271589800Y-76039000D02*
X271589800Y-62039600D01*
X252539800Y-76039000D02*
X252539800Y-62039600D01*
X138238100Y-62039600D02*
X152238800Y-62039600D01*
X228438800Y-76039000D02*
X214439800Y-76039000D01*
X247488800Y-62039600D02*
X247488800Y-76039000D01*
X304638800Y-42989500D02*
X304638800Y-56988800D01*
X42989450Y-62039600D02*
X56989000Y-62039600D01*
X76038800Y-76039000D02*
X62039500Y-76039000D01*
X214439800Y-76039000D02*
X214439800Y-62039600D01*
X152238800Y-62039600D02*
X152238800Y-76039000D01*
X56989000Y-62039600D02*
X56989000Y-76039000D01*
X133188800Y-76039000D02*
X119189500Y-76039000D01*
X152238800Y-76039000D02*
X138238100Y-76039000D01*
X214439800Y-56988800D02*
X214439800Y-42989500D01*
X228438800Y-56988800D02*
X214439800Y-56988800D01*
X228438800Y-42989500D02*
X228438800Y-56988800D01*
X285588800Y-56988800D02*
X271589800Y-56988800D01*
X56989000Y-76039000D02*
X42989450Y-76039000D01*
X138238100Y-76039000D02*
X138238100Y-62039600D01*
X271589800Y-42989500D02*
X285588800Y-42989500D01*
X114138800Y-62039600D02*
X114138800Y-76039000D01*
X214439800Y-42989500D02*
X228438800Y-42989500D01*
X266538800Y-42989500D02*
X266538800Y-56988800D01*
X290639800Y-56988800D02*
X290639800Y-42989500D01*
X62039500Y-62039600D02*
X76038800Y-62039600D01*
X266538800Y-76039000D02*
X252539800Y-76039000D01*
X100139500Y-62039600D02*
X114138800Y-62039600D01*
X228438800Y-62039600D02*
X228438800Y-76039000D01*
X233489800Y-56988800D02*
X233489800Y-42989500D01*
X304638800Y-56988800D02*
X290639800Y-56988800D01*
X152238800Y-95088960D02*
X138238100Y-95088960D01*
X152238800Y-81089500D02*
X152238800Y-95088960D01*
X214439800Y-81089500D02*
X228438800Y-81089500D01*
X271589800Y-81089500D02*
X285588800Y-81089500D01*
X290639800Y-95088960D02*
X290639800Y-81089500D01*
X100139500Y-95088960D02*
X100139500Y-81089500D01*
X285588800Y-95088960D02*
X271589800Y-95088960D01*
X100139500Y-81089500D02*
X114138800Y-81089500D01*
X119189500Y-81089500D02*
X133188800Y-81089500D01*
X247488800Y-81089500D02*
X247488800Y-95088960D01*
X266538800Y-95088960D02*
X252539800Y-95088960D01*
X271589800Y-95088960D02*
X271589800Y-81089500D01*
X266538800Y-81089500D02*
X266538800Y-95088960D01*
X233489800Y-95088960D02*
X233489800Y-81089500D01*
X252539800Y-81089500D02*
X266538800Y-81089500D01*
X304638800Y-95088960D02*
X290639800Y-95088960D01*
X138238100Y-95088960D02*
X138238100Y-81089500D01*
X285588800Y-76039000D02*
X271589800Y-76039000D01*
X42989450Y-81089500D02*
X56989000Y-81089500D01*
X233489800Y-81089500D02*
X247488800Y-81089500D01*
X285588800Y-62039600D02*
X285588800Y-76039000D01*
X271589800Y-62039600D02*
X285588800Y-62039600D01*
X285588800Y-81089500D02*
X285588800Y-95088960D01*
X95088800Y-81089500D02*
X95088800Y-95088960D01*
X290639800Y-76039000D02*
X290639800Y-62039600D01*
X304638800Y-76039000D02*
X290639800Y-76039000D01*
X304638800Y-62039600D02*
X304638800Y-76039000D01*
X81089500Y-81089500D02*
X95088800Y-81089500D01*
X42989450Y-95088960D02*
X42989450Y-81089500D01*
X56989000Y-95088960D02*
X42989450Y-95088960D01*
X56989000Y-81089500D02*
X56989000Y-95088960D01*
X228438800Y-95088960D02*
X214439800Y-95088960D01*
X76038800Y-95088960D02*
X62039500Y-95088960D01*
X62039500Y-81089500D02*
X76038800Y-81089500D01*
X304638800Y-81089500D02*
X304638800Y-95088960D01*
X62039500Y-95088960D02*
X62039500Y-81089500D01*
X247488800Y-95088960D02*
X233489800Y-95088960D01*
X95088800Y-95088960D02*
X81089500Y-95088960D01*
X252539800Y-95088960D02*
X252539800Y-81089500D01*
X133188800Y-81089500D02*
X133188800Y-95088960D01*
X81089500Y-95088960D02*
X81089500Y-81089500D01*
X114138800Y-95088960D02*
X100139500Y-95088960D01*
X114138800Y-81089500D02*
X114138800Y-95088960D01*
X138238100Y-81089500D02*
X152238800Y-81089500D01*
X214439800Y-95088960D02*
X214439800Y-81089500D01*
X133188800Y-95088960D02*
X119189500Y-95088960D01*
X290639800Y-62039600D02*
X304638800Y-62039600D01*
X228438800Y-81089500D02*
X228438800Y-95088960D01*
X76038800Y-81089500D02*
X76038800Y-95088960D01*
X119189500Y-95088960D02*
X119189500Y-81089500D01*
X290639800Y-81089500D02*
X304638800Y-81089500D01*
X56989000Y-42989500D02*
X56989000Y-56988800D01*
X42989450Y-42989500D02*
X56989000Y-42989500D01*
X138238100Y-42989500D02*
X152238800Y-42989500D01*
X133188800Y-56988800D02*
X119189500Y-56988800D01*
X119189500Y-56988800D02*
X119189500Y-42989500D01*
X95088800Y-56988800D02*
X81089500Y-56988800D01*
X100139500Y-42989500D02*
X114138800Y-42989500D01*
X56989000Y-56988800D02*
X42989450Y-56988800D01*
X138238100Y-56988800D02*
X138238100Y-42989500D01*
X100139500Y-56988800D02*
X100139500Y-42989500D01*
X76038800Y-42989500D02*
X76038800Y-56988800D01*
X62039500Y-42989500D02*
X76038800Y-42989500D01*
X95088800Y-42989500D02*
X95088800Y-56988800D01*
X42989450Y-56988800D02*
X42989450Y-42989500D01*
X76038800Y-56988800D02*
X62039500Y-56988800D01*
X152238800Y-56988800D02*
X138238100Y-56988800D01*
X152238800Y-42989500D02*
X152238800Y-56988800D01*
X114138800Y-42989500D02*
X114138800Y-56988800D01*
X133188800Y-42989500D02*
X133188800Y-56988800D01*
X81089500Y-56988800D02*
X81089500Y-42989500D01*
X114138800Y-56988800D02*
X100139500Y-56988800D01*
X81089500Y-42989500D02*
X95088800Y-42989500D01*
X62039500Y-56988800D02*
X62039500Y-42989500D01*
X119189500Y-42989500D02*
X133188800Y-42989500D01*
D11*
X39370000Y-41910000D02*
G75*
G02*
X41910000Y-39370000I2540000J0D01*
G01*
X191008000Y-39370000D02*
X41910000Y-39370000D01*
X305816000Y-39370000D02*
X191008000Y-39370000D01*
X305816000Y-39370000D02*
G75*
G02*
X308356000Y-41910000I0J-2540000D01*
G01*
X308356000Y-96520000D02*
X308356000Y-41910000D01*
X308356000Y-96520000D02*
G75*
G02*
X305816000Y-99060000I-2540000J0D01*
G01*
X41910000Y-99060000D02*
G75*
G02*
X39370000Y-96520000I0J2540000D01*
G01*
X39370000Y-96520000D02*
X39370000Y-41910000D01*
X41910000Y-99060000D02*
X305816000Y-99060000D01*
M02*
